<?xml version="1.0" encoding="utf-8"?>
<!-- Generator: Adobe Illustrator 17.0.0, SVG Export Plug-In . SVG Version: 6.00 Build 0)  -->
<!DOCTYPE svg PUBLIC "-//W3C//DTD SVG 1.1//EN" "http://www.w3.org/Graphics/SVG/1.1/DTD/svg11.dtd">
<svg version="1.1" id="Layer_1" xmlns="http://www.w3.org/2000/svg" xmlns:xlink="http://www.w3.org/1999/xlink" x="50%" y="50%"
	 width="604.819px" height="520.941px" viewBox="0 0 604.819 520.941" enable-background="new 0 0 604.819 520.941"
	 xml:space="preserve">
<g>
	<path fill="#FFFFFF" d="M241.296,187.631c0-1.354-0.324-2.396-0.971-3.125c-0.647-0.729-1.562-1.094-2.745-1.094
		c-1.313,0-2.317,0.556-3.012,1.667c-0.526,0.833-0.845,2.005-0.957,3.516h7.713L241.296,187.631z"/>
	<path fill="#FFFFFF" d="M207.386,332.888c-0.658-0.525-1.501-0.787-2.53-0.787h-0.386v5.967h0.186c1.086,0,1.977-0.295,2.672-0.885
		c0.696-0.59,1.043-1.348,1.043-2.273C208.372,334.085,208.043,333.411,207.386,332.888z"/>
	<path fill="#FFFFFF" d="M180.692,344.565c1.682,1.367,3.837,1.947,6.467,1.74c0.676-0.617,1.229-1.557,1.658-2.82
		c0.429-1.264,0.643-2.578,0.643-3.945c0-2.348-0.838-4.209-2.515-5.58c-1.677-1.369-3.835-1.953-6.474-1.746
		c-0.676,0.617-1.229,1.561-1.658,2.828c-0.429,1.268-0.643,2.59-0.643,3.965C178.17,341.347,179.011,343.2,180.692,344.565z"/>
	<path fill="#FFFFFF" d="M374.324,187.631c0-1.354-0.323-2.396-0.971-3.125c-0.648-0.729-1.562-1.094-2.745-1.094
		c-1.313,0-2.317,0.556-3.012,1.667c-0.525,0.833-0.845,2.005-0.957,3.516h7.713L374.324,187.631z"/>
	<path fill="#FFFFFF" d="M340.402,345.548c0.724-0.533,1.086-1.291,1.086-2.273c0-0.879-0.364-1.557-1.094-2.029
		c-0.729-0.471-1.77-0.709-3.122-0.709h-0.086v5.812h0.114C338.644,346.349,339.677,346.081,340.402,345.548z"/>
	<polygon fill="#FFFFFF" points="378.605,334.6 376.472,340.831 380.908,340.831 	"/>
	<path fill="#FFFFFF" d="M339.987,336.36c0.609-0.473,0.915-1.148,0.915-2.027c0-0.787-0.291-1.391-0.872-1.811
		c-0.581-0.422-1.405-0.633-2.473-0.633h-0.371v5.18h0.2C338.51,337.069,339.378,336.833,339.987,336.36z"/>
	<path fill="#FFFFFF" d="M359.47,337.183c0.695-0.59,1.044-1.348,1.044-2.273c0-0.824-0.329-1.498-0.986-2.021
		c-0.657-0.525-1.501-0.787-2.529-0.787h-0.387v5.967h0.187C357.884,338.067,358.775,337.772,359.47,337.183z"/>
	<path fill="#FFFFFF" d="M596.317,260.477c1.14-1.133,2.178-2.382,3.06-3.782c8.79-14.066,4.521-33.305,3.568-37.019
		c-0.429-1.685-0.904-3.292-1.44-4.805c0.212-1.758,0.212-3.568-0.025-5.366c-0.771-5.723-3.137-10.661-6.259-14.921
		c0.619-0.722,1.18-1.448,1.665-2.138c4.629-6.568,5.047-15.22,1.073-22.206c-2.558-4.495-6.664-7.791-11.398-9.399
		c-1.008-0.756-2.318-1.625-3.829-2.462c-0.132-6.743-1.95-13.49-5.497-19.44c-3.488-5.856-9.831-11.751-17.789-14.786
		c-0.522-1.014-1.14-2-1.844-2.939c-3.604-4.781-9.09-7.782-15.062-8.211c-0.153-0.021-0.297-0.021-0.43-0.034
		c-1.847-0.821-4.284-1.831-7.315-2.569c0.396-4.533-0.059-9.423-2.215-14.1c-0.235-0.523-0.486-1.023-0.763-1.525
		c-0.376-1.519-0.845-3.069-1.415-4.649c-2.283-6.403-5.398-11.031-10.385-15.456c-2.902-2.582-5.699-4.07-7.843-5.01
		c0.643-6.066-1.391-12.216-5.807-16.715c-3.983-4.046-9.334-6.199-14.807-6.199c-0.315,0-0.634,0-0.952,0.022
		c-0.512-0.177-1.022-0.343-1.525-0.487c-0.677-0.199-1.37-0.379-2.049-0.545c-0.57-0.417-1.188-0.809-1.807-1.167
		c-4.202-2.405-8.895-3.629-13.993-3.629c-11.398,0-21.238,6.284-24.938,8.982c-0.737,0.537-1.424,1.085-2.129,1.621
		c-1.757-1.167-3.628-2.19-5.603-3.071c1.096-5.081,0.237-10.435-2.464-14.967c-3.271-5.498-8.896-9.185-15.263-9.98
		c-3.798-0.467-8.354-0.953-13.254-0.953c-3.131,0-6.009,0.202-8.649,0.582c-2.657-0.99-5.448-1.476-8.342-1.476
		c-8.413,0-14.49,4.211-17.407,6.235l-0.462,0.321c-1.439,0.964-2.701,1.975-3.857,3.023c-0.485-0.206-0.998-0.383-1.512-0.558
		c-0.829-0.882-1.782-1.657-2.771-2.383c0.928-6.816-1.556-13.827-6.958-18.51C350.536,3.663,340.15,0,329.811,0
		c-2.83,0-5.58,0.272-8.211,0.809c-0.067-0.013-0.131-0.025-0.205-0.025c-0.771-0.058-1.543-0.092-2.293-0.092
		c-4.188,0-10.529,0.999-16.691,5.663c-6.166-4.664-12.507-5.663-16.694-5.663c-0.748,0-1.522,0.034-2.309,0.092
		c-0.059,0-0.129,0.012-0.187,0.025C280.588,0.272,277.84,0,275.01,0c-10.341,0-20.726,3.663-27.816,9.806
		c-5.414,4.683-7.901,11.693-6.96,18.51c-0.989,0.726-1.942,1.5-2.788,2.383c-0.496,0.175-1.007,0.352-1.509,0.558
		c-1.143-1.048-2.415-2.059-3.857-3.023l-0.45-0.321c-2.914-2.024-8.997-6.235-17.407-6.235c-2.891,0-5.684,0.486-8.339,1.476
		c-2.651-0.38-5.521-0.582-8.651-0.582c-4.903,0-9.456,0.486-13.254,0.953c-6.364,0.795-11.993,4.482-15.263,9.98
		c-2.713,4.532-3.544,9.886-2.463,14.967c-1.976,0.869-3.843,1.905-5.602,3.071c-0.707-0.549-1.405-1.084-2.131-1.621
		c-3.7-2.698-13.54-8.982-24.938-8.982c-5.08,0-9.791,1.224-13.992,3.629c-0.628,0.358-1.238,0.75-1.807,1.167
		c-0.692,0.166-1.369,0.346-2.061,0.545c-0.496,0.144-1.011,0.31-1.51,0.487c-0.321-0.022-0.643-0.022-0.949-0.022
		c-5.476,0-10.842,2.153-14.816,6.199c-4.401,4.499-6.447,10.649-5.804,16.715c-2.143,0.94-4.94,2.428-7.843,4.998
		c-4.983,4.438-8.101,9.065-10.385,15.444c-0.56,1.58-1.048,3.142-1.406,4.673c-0.285,0.49-0.536,1.001-0.784,1.525
		c-2.129,4.677-2.594,9.567-2.199,14.1c-3.035,0.738-5.476,1.748-7.319,2.569c-0.132,0.012-0.273,0.012-0.428,0.034
		c-5.973,0.429-11.458,3.43-15.062,8.211c-0.705,0.94-1.323,1.926-1.844,2.939c-7.959,3.035-14.301,8.93-17.799,14.786
		c-3.533,5.965-5.356,12.697-5.484,19.44c-1.523,0.837-2.82,1.706-3.844,2.462c-4.735,1.608-8.829,4.904-11.386,9.399
		c-3.972,6.986-3.559,15.637,1.06,22.206c0.486,0.69,1.059,1.416,1.663,2.138c-3.115,4.26-5.469,9.198-6.232,14.921
		c-0.251,1.798-0.264,3.607-0.038,5.366c-0.535,1.513-1.01,3.121-1.451,4.82c-0.937,3.699-5.209,22.938,3.583,37.004
		c0.87,1.4,1.914,2.649,3.056,3.782c-1.142,1.117-2.186,2.364-3.056,3.77c-8.793,14.066-4.521,33.305-3.583,37.014
		c0.441,1.705,0.916,3.298,1.451,4.82c-0.226,1.748-0.214,3.555,0.038,5.365c0.763,5.724,3.117,10.646,6.232,14.905
		c-0.604,0.729-1.176,1.455-1.663,2.143c-4.619,6.569-5.032,15.214-1.06,22.2c2.557,4.51,6.651,7.807,11.386,9.399
		c1.023,0.762,2.331,1.641,3.844,2.462c0.128,6.758,1.951,13.496,5.494,19.456c3.489,5.855,9.83,11.726,17.789,14.775
		c0.521,1.023,1.14,2.01,1.844,2.94c3.604,4.78,9.089,7.782,15.062,8.221c0.155,0.008,0.296,0.023,0.428,0.023
		c1.844,0.82,4.285,1.832,7.319,2.569c-0.395,4.532,0.07,9.423,2.199,14.1c0.248,0.521,0.5,1.033,0.775,1.522
		c0.367,1.52,0.845,3.071,1.415,4.649c2.284,6.415,5.402,11.033,10.385,15.456c2.903,2.593,5.699,4.066,7.843,5.01
		c-0.643,6.066,1.403,12.22,5.804,16.706c3.975,4.043,9.34,6.208,14.816,6.208c0.306,0,0.628,0,0.949-0.01
		c0.511,0.162,1.014,0.318,1.525,0.472c0.677,0.202,1.366,0.399,2.045,0.551c0.569,0.417,1.179,0.806,1.807,1.165
		c4.201,2.416,8.912,3.625,13.992,3.625c11.399,0,21.239-6.277,24.938-8.976c0.726-0.536,1.424-1.084,2.131-1.611
		c1.759,1.165,3.626,2.189,5.602,3.059c-1.081,5.081-0.25,10.432,2.463,14.968c3.27,5.512,8.899,9.185,15.263,9.984
		c3.798,0.464,8.351,0.952,13.254,0.952c3.13,0,6-0.202,8.651-0.586c2.655,0.987,5.448,1.479,8.339,1.479
		c8.41,0,14.493-4.214,17.407-6.234l0.45-0.326c1.441-0.961,2.723-1.975,3.857-3.019c0.502,0.19,1.014,0.376,1.509,0.557
		c0.846,0.882,1.798,1.658,2.788,2.38c-0.941,6.813,1.546,13.823,6.96,18.513c7.09,6.14,17.475,9.807,27.816,9.807
		c2.831,0,5.578-0.276,8.211-0.797c0.059,0,0.128,0.01,0.187,0.01c0.787,0.069,1.546,0.094,2.309,0.094
		c4.187,0,10.528-0.998,16.694-5.664c6.162,4.666,12.503,5.664,16.691,5.664c0.75,0,1.521-0.024,2.293-0.094
		c0.074,0,0.138-0.01,0.205-0.01c2.631,0.52,5.381,0.797,8.211,0.797c10.339,0,20.725-3.667,27.816-9.807
		c5.402-4.689,7.886-11.699,6.958-18.513c0.989-0.722,1.942-1.498,2.771-2.38c0.514-0.181,1.026-0.367,1.521-0.557
		c1.147,1.044,2.42,2.066,3.859,3.019l0.45,0.326c2.917,2.02,8.994,6.234,17.407,6.234c2.894,0,5.685-0.492,8.342-1.479
		c2.641,0.384,5.518,0.586,8.649,0.586c4.899,0,9.456-0.488,13.254-0.952c6.366-0.799,11.992-4.473,15.263-9.984
		c2.701-4.536,3.56-9.887,2.464-14.968c1.975-0.869,3.846-1.894,5.603-3.059c0.705,0.537,1.392,1.075,2.129,1.611
		c3.699,2.698,13.539,8.976,24.938,8.976c5.098,0,9.791-1.209,13.993-3.625c0.619-0.359,1.236-0.748,1.807-1.165
		c0.69-0.167,1.372-0.349,2.06-0.551c0.5-0.153,1.002-0.31,1.514-0.472c0.318,0.01,0.637,0.01,0.952,0.01
		c5.473,0,10.823-2.165,14.807-6.208c4.416-4.486,6.449-10.64,5.807-16.706c2.144-0.928,4.94-2.417,7.843-5.001
		c4.986-4.432,8.102-9.05,10.385-15.441c0.562-1.583,1.039-3.139,1.406-4.661c0.285-0.501,0.536-1.014,0.771-1.534
		c2.156-4.677,2.61-9.567,2.215-14.1c3.031-0.737,5.469-1.749,7.315-2.569c0.133,0,0.276-0.016,0.43-0.023
		c5.972-0.438,11.457-3.44,15.062-8.221c0.704-0.931,1.322-1.917,1.844-2.94c7.958-3.05,14.316-8.936,17.799-14.791
		c3.537-5.959,5.356-12.683,5.487-19.44c1.511-0.821,2.821-1.7,3.829-2.462c4.734-1.593,8.841-4.89,11.398-9.399
		c3.974-6.986,3.556-15.631-1.073-22.2c-0.485-0.688-1.046-1.415-1.665-2.143c3.122-4.26,5.487-9.182,6.259-14.905
		c0.237-1.811,0.237-3.617,0.025-5.365c0.535-1.522,1.011-3.13,1.44-4.83c0.952-3.699,5.222-22.938-3.568-37.004
		C598.495,262.841,597.457,261.594,596.317,260.477z M572.008,176.225c2.775,1.002,4.855,4.514,7.916,4.275
		c-2.704,3.831-7.649,5.246-11.982,5.757c1.393,1.823,4.498,2.677,4.569,5.354c-4.306-1.197-8.163-3.39-12.495-4.327
		c1.62-0.49,3.227-1.06,4.81-1.546c0.262-0.089,0.142-0.444-0.118-0.408c-2.441,0.367-4.844,0.692-7.246,0.938
		c4.676-1.234,8.686-4.236,13.506-5.277c0.221-0.049,0.178-0.417-0.064-0.407c-5.805,0.285-10.789,3.271-16.488,4.009
		c-2.025,0.251-4.092,0.177-6.165-0.025l-3.592-0.998c7.225,0.438,11.543-4.416,17.601-7.034
		C565.445,175.168,568.682,175.039,572.008,176.225z M528.502,130.293c2.763,0.376,4.805,1.522,7.326,2.578
		c1.81,0.763,3.261,0.68,5.187,0.821c-1.579,7.507-10.359,11.043-17.164,10.058c1.593,1.375,5.104,1.96,7.139,2.221
		c-2.261,2.741-8.302,3.772-11.698,3.356c-2.687-0.331-4.72-1.072-6.979-2.569c-1.455-0.974-2.748-2.478-4.416-3.047
		c0.012,3.333,5.102,6.107,7.769,7.307c3.804,1.712,7.374,2.45,11.444,2.214c2.157-0.122,3.832-0.382,5.791-1.252
		c1.171-0.52,2.05-1.212,3.397-1.308c1.261-0.107,3.556,0.083,4.769,0.478c1.298,0.417,1.925,1.449,3.51,1.164
		c-0.488,1.617-1.3,4.187-3.155,4.781c2.919-1.091,5.202-2.638,6.131-5.804c0.665-2.309,0.275-7.163-3.12-7.102
		c0.325-0.561,0.729-0.771,1.372-0.998c4.903-1.691,11.255,2.413,13.596,6.366c3.738,6.269,3.343,15.009-1.033,20.914
		c-8.732,11.764-26.856,11.374-37.409,2.248c-4.936-4.247-8.621-9.9-12.026-15.633c0.928,0.846,1.868,1.678,2.854,2.475
		c11.806,9.592,36.481,16.097,43.215-2.401c0.096-0.276-0.285-0.462-0.466-0.276c-15.04,15.028-35.334,5.222-47.637-8.008
		c-3.17-3.415-6.471-7.708-10.057-11.886c10.415,3.51,22.05,3.258,32.278-0.912c0.238-0.098,0.148-0.478-0.113-0.408
		c-12.268,3.415-24.653,2.107-35.911-2.869c-0.083-0.068-0.141-0.139-0.214-0.221c6.186,0.756,12.065,2.459,18.537,0.71
		C517.031,131.782,522.59,129.473,528.502,130.293z M498.552,342.76c5.393,5.095,5.701,12.233,3.905,18.879l-0.464,0.837
		c1.08-5.162-0.61-8.995-4.162-12.565c-1.906-1.902-3.967-3.745-4.487-6.471c-0.181-0.952-0.024-1.927,0.129-2.903
		c-2.271-0.049-3.331-1.309-5.993-0.974v-0.846c2.058-0.717,3.259-2.285,5.806-2.502l-0.171-0.533
		c0.774,0.401,1.514,0.702,2.31,0.652c0.099-0.008,0.192-0.059,0.274-0.119c0.035,0,0.074,0,0.107,0
		c-0.024,0.179-0.048,0.322-0.072,0.462c3.951,0.527,8.969,2.61,8.758,6.737c0.438-1.298,1.155-2.462,1.475-3.797
		c3.758,3.295,2.484,11.279,0.044,15.906c-0.163-5.14-2.472-10.066-7.301-12.991C498.579,342.463,498.434,342.652,498.552,342.76z
		 M480.766,392.908c-2.474,4.676-8.23,8.091-12.751,10.567c-6.285,3.435-13.197,4.995-20.335,3.425
		c-6.912-1.514-13.243-4.141-19.56-7.02c-2.904-1.332-5.891-3.176-8.653-4.829c-1.772-1.088-4.935-2.309-6.05-4.193
		c14.276,5.831,31.409,6.783,45.41,3.967c0.31-0.061,0.238-0.574-0.08-0.552c-17.287,1.17-35.574-1.461-51.208-9.276
		c25.174,6.235,54.868-1.154,76.072-13.839c0.058-0.024,0.022-0.105-0.048-0.096c-15.313,4.013-30.209,10.244-46.055,11.993
		c-8.52,0.94-16.684,0.654-24.749-0.643c0.154-0.084,0.308-0.167,0.463-0.245c15.074-2.441,30.279-11.39,41.693-19.027
		c0.153-0.096,0.018-0.31-0.145-0.235c-10.007,4.35-19.749,9.839-30.15,13.238c-1.273,0.419-2.519,0.773-3.757,1.106
		c4.235-3.043,8.278-6.401,12.504-9.481c7.114-5.212,14.075-10.1,22.533-12.847c4.113-1.348,9.877-0.576,14.266-0.202
		c-1.249,1.129-1.988,3.056-3.048,4.472c-1.389,1.855-3.113,3.021-4.664,4.642c2.462-0.903,4.891-2.098,7.381-2.977
		c3.699-1.323,7.124-0.81,10.968-0.405c5.172,0.536,11.515,1.737,16.408-0.391c0.45,3.056-0.969,7.172-1.967,10.008
		c-1.926,5.399-5.398,10.847-9.716,14.679c-4.643,4.119-11.626,6.732-17.49,8.137C471.904,392.85,477.129,394.194,480.766,392.908z
		 M396.221,369.386c-8.04,4.048-16.675,6.853-25.278,6.959c5.302-3.797,9.219-9.22,15.821-11.446
		c4.092-1.376,7.344-0.661,11.447-0.188c3.115,0.368,6.646,1.476,9.647,0.235c-1.155,3.284-1.749,6.033-3.798,9.033
		c-2.261,3.285-6.514,5.937-10.597,6.568c-3.892,0.594-7.876-0.595-11.66-1.048c-2.525-0.301-5.187-0.502-7.746-0.738
		c7.876-1.01,15.658-4.523,22.222-9.255C396.367,369.442,396.304,369.34,396.221,369.386z M356.791,348.146
		c0.119,0.691,0.322,1.381,0.607,2.062h-3.729h-3.744c0.285-0.682,0.49-1.371,0.614-2.062c0.114-0.693,0.172-1.545,0.172-2.555
		v-12.732c0-1.01-0.06-1.861-0.179-2.555c-0.12-0.691-0.322-1.379-0.607-2.062h3.729h4.03c2.753,0,4.878,0.566,6.374,1.697
		c1.495,1.133,2.243,2.742,2.243,4.83c0,1.992-0.828,3.578-2.486,4.758c-0.581,0.422-1.234,0.758-1.958,1.01l3.573,5.055
		c0.724,1.019,1.405,1.875,2.043,2.568c0.141,0.153,0.304,0.303,0.454,0.455c0.045-0.079,0.092-0.148,0.137-0.23
		c0.381-0.693,0.829-1.623,1.344-2.793l6.03-14.305c0.276-0.645,0.515-1.262,0.715-1.852c0.2-0.59,0.31-0.988,0.329-1.193h2.486
		h2.486c0.02,0.205,0.129,0.604,0.329,1.193c0.2,0.59,0.438,1.207,0.714,1.852l6.031,14.305c0.524,1.197,0.974,2.143,1.351,2.836
		c0.376,0.691,0.76,1.285,1.15,1.781h-3.557h-3.571c0.038-0.309,0.019-0.652-0.057-1.031c-0.077-0.379-0.229-0.883-0.458-1.51
		l-1.111-3.004h-7.11l-1.004,3.004c-0.219,0.627-0.362,1.131-0.429,1.51c-0.066,0.379-0.081,0.723-0.043,1.031h-3.406h-0.609h-2.797
		h-3.325c-0.39,0-1.054-0.52-1.99-1.557c-0.938-1.039-1.891-2.308-2.861-3.805l-2.089-3.299v4.043
		C356.612,346.601,356.671,347.452,356.791,348.146z M331.105,330.304c-0.119-0.691-0.321-1.379-0.607-2.062h3.73h3.973
		c2.658,0,4.737,0.486,6.238,1.459c1.5,0.975,2.251,2.322,2.251,4.043c0,1.75-0.739,3.102-2.216,4.057
		c-0.267,0.178-0.561,0.338-0.886,0.477c0.695,0.254,1.306,0.559,1.829,0.914c1.629,1.094,2.444,2.656,2.444,4.688
		s-0.796,3.594-2.387,4.688c-1.592,1.096-3.854,1.643-6.788,1.643h-4.459h-3.73c0.286-0.682,0.491-1.371,0.614-2.062
		c0.115-0.693,0.172-1.545,0.172-2.555v-12.732C331.284,331.849,331.224,330.997,331.105,330.304z M345.019,297.354l-1.408,16.184
		h-24.206l11.943-90.041h33.842l13.389,90.041h-23.928l-1.257-16.184H345.019z M272.772,241.516v-18.019h51.166v18.019h-13.904
		v72.021H286.62v-72.021H272.772z M280.046,346.952c0.143,1.273,0.314,2.358,0.515,3.256h-3.315h-3.315
		c-0.086-0.318-0.265-0.738-0.536-1.264c-0.272-0.523-0.56-1.01-0.865-1.459l-6.273-9.096v7.201c0,1.01,0.059,1.861,0.178,2.555
		c0.119,0.691,0.322,1.381,0.607,2.062h-3.616h-3.615c0.286-0.682,0.488-1.371,0.607-2.062c0.119-0.693,0.178-1.545,0.178-2.555
		v-13.926l-2.958-3.424h4.059h4.058c0.267,0.553,0.615,1.174,1.044,1.867c0.429,0.691,1.038,1.609,1.829,2.75l5.545,8.043v-8.043
		c0-1.01-0.059-1.861-0.179-2.555c-0.119-0.691-0.321-1.379-0.607-2.062h3.616h3.616c-0.286,0.684-0.488,1.371-0.607,2.062
		c-0.119,0.693-0.179,1.545-0.179,2.555v10.752C279.831,344.565,279.903,345.679,280.046,346.952z M256.311,348.146
		c0.119,0.691,0.321,1.381,0.607,2.062h-3.73h-3.744c0.286-0.682,0.49-1.371,0.614-2.062c0.114-0.693,0.171-1.545,0.171-2.555
		v-12.732c0-1-0.06-1.848-0.179-2.541c-0.119-0.691-0.321-1.385-0.607-2.076h3.73h3.744c-0.286,0.684-0.488,1.371-0.607,2.062
		c-0.119,0.693-0.179,1.545-0.179,2.555v12.732C256.132,346.601,256.192,347.452,256.311,348.146z M246.855,313.537l-12.18-40.933
		v40.933h-19.576v-90.041h19.576L247.8,264.04v-40.543h19.577v90.041H246.855z M247.052,348.132
		c0.115,0.336,0.315,0.705,0.601,1.107v0.113c-2.373,0.815-5.107,1.231-8.203,1.248c-3.602,0-6.552-0.994-8.854-2.982
		c-2.301-1.988-3.451-4.545-3.451-7.67c0-3.529,1.186-6.416,3.559-8.662c2.372-2.246,5.417-3.369,9.132-3.369
		c1.305,0,2.36,0.066,3.165,0.197c0.805,0.131,1.77,0.393,2.894,0.787v5.684c-0.809-0.721-1.773-1.295-2.891-1.727
		c-1.118-0.43-2.215-0.645-3.291-0.645c-1.818,0-3.303,0.658-4.454,1.979c-1.151,1.32-1.727,3.014-1.727,5.082
		c0,2.059,0.54,3.744,1.619,5.06c1.079,1.315,2.465,1.971,4.159,1.971c0.542-0.008,1.098-0.078,1.669-0.211v-2.904
		c0-1.012-0.06-1.863-0.18-2.555c-0.12-0.693-0.325-1.381-0.613-2.064h3.737h3.752c-0.289,0.693-0.493,1.385-0.613,2.078
		s-0.18,1.539-0.18,2.541v3.832C246.881,347.425,246.938,347.794,247.052,348.132z M208.524,369.507
		c6.578,4.732,14.36,8.245,22.224,9.255c-2.556,0.236-5.205,0.438-7.732,0.738c-3.791,0.453-7.782,1.642-11.671,1.048
		c-4.07-0.632-8.339-3.283-10.589-6.568c-2.058-3-2.638-5.749-3.807-9.033c3.007,1.24,6.544,0.133,9.674-0.235
		c4.09-0.474,7.341-1.188,11.432,0.188c6.604,2.227,10.529,7.649,15.824,11.446c-8.603-0.106-17.239-2.911-25.281-6.959
		C208.515,369.34,208.454,369.442,208.524,369.507z M145.991,394.825c14.001,2.816,31.133,1.864,45.411-3.967
		c-1.13,1.885-4.278,3.105-6.054,4.193c-2.76,1.653-5.745,3.497-8.648,4.829c-6.315,2.879-12.649,5.506-19.561,7.02
		c-7.129,1.57-14.066,0.01-20.344-3.425c-4.496-2.477-10.268-5.892-12.743-10.567c3.638,1.286,8.867-0.059,12.719-0.025
		c-5.852-1.404-12.838-4.018-17.478-8.137c-4.318-3.832-7.803-9.279-9.72-14.679c-0.999-2.836-2.417-6.952-1.963-10.008
		c4.891,2.128,11.231,0.927,16.406,0.391c3.844-0.405,7.271-0.918,10.982,0.405c2.49,0.879,4.903,2.073,7.369,2.977
		c-1.552-1.62-3.277-2.786-4.667-4.642c-1.056-1.416-1.797-3.343-3.046-4.472c4.391-0.374,10.151-1.146,14.252,0.202
		c8.471,2.747,15.423,7.635,22.562,12.847c4.21,3.08,8.253,6.438,12.489,9.481c-1.234-0.333-2.496-0.687-3.758-1.106
		c-10.397-3.399-20.139-8.889-30.163-13.238c-0.152-0.074-0.285,0.14-0.129,0.235c11.411,7.638,26.617,16.586,41.69,19.027
		c0.157,0.078,0.298,0.161,0.466,0.245c-8.067,1.297-16.243,1.583-24.748,0.643c-15.849-1.749-30.745-7.98-46.057-11.993
		c-0.058-0.01-0.106,0.071-0.046,0.096c21.199,12.685,50.899,20.074,76.072,13.839c-15.637,7.815-33.923,10.446-51.208,9.276
		C145.756,394.251,145.683,394.764,145.991,394.825z M102.826,362.476l-0.462-0.837c-1.798-6.646-1.488-13.784,3.914-18.879
		c0.107-0.107-0.037-0.297-0.177-0.227c-4.83,2.925-7.139,7.852-7.295,12.991c-2.45-4.627-3.712-12.611,0.062-15.906
		c0.309,1.335,1.019,2.499,1.463,3.797c-0.226-4.127,4.805-6.21,8.765-6.737c-0.034-0.14-0.058-0.283-0.083-0.462
		c0.036,0,0.074,0,0.12,0c0.073,0.061,0.169,0.111,0.263,0.119c0.796,0.05,1.534-0.251,2.306-0.652l-0.175,0.533
		c2.558,0.217,3.746,1.785,5.804,2.502v0.846c-2.652-0.335-3.715,0.925-5.984,0.974c0.156,0.977,0.31,1.951,0.132,2.903
		c-0.523,2.726-2.581,4.568-4.486,6.471C103.432,353.48,101.744,357.313,102.826,362.476z M106.277,178.191
		c-5.402-5.106-5.711-12.244-3.914-18.893l0.462-0.821c-1.081,5.139,0.607,8.983,4.165,12.551c1.905,1.904,3.963,3.748,4.486,6.474
		c0.178,0.952,0.024,1.926-0.132,2.903c2.27,0.058,3.332,1.308,5.984,0.965v0.863c-2.058,0.708-3.246,2.275-5.804,2.489l0.175,0.536
		c-0.772-0.392-1.51-0.692-2.306-0.643c-0.095,0-0.19,0.049-0.263,0.107c-0.046,0-0.083,0-0.12,0
		c0.024-0.165,0.049-0.318,0.083-0.465c-3.96-0.511-8.991-2.594-8.765-6.731c-0.444,1.292-1.154,2.462-1.463,3.794
		c-3.773-3.283-2.512-11.276-0.062-15.91c0.156,5.139,2.465,10.066,7.295,12.995C106.24,178.488,106.384,178.298,106.277,178.191z
		 M124.051,128.033c2.475-4.676,8.248-8.094,12.743-10.569c6.278-3.439,13.215-4.985,20.344-3.424
		c6.912,1.51,13.245,4.138,19.561,7.016c2.903,1.336,5.888,3.179,8.648,4.845c1.776,1.069,4.924,2.294,6.054,4.175
		c-14.277-5.831-31.409-6.781-45.411-3.96c-0.309,0.07-0.236,0.57,0.082,0.545c17.285-1.164,35.571,1.464,51.208,9.283
		c-25.173-6.226-54.873,1.154-76.072,13.833c-0.061,0.025-0.012,0.12,0.046,0.098c15.312-4,30.208-10.244,46.057-11.993
		c8.505-0.937,16.681-0.652,24.748,0.64c-0.168,0.082-0.31,0.172-0.466,0.251c-15.073,2.441-30.278,11.398-41.69,19.027
		c-0.156,0.104-0.024,0.309,0.129,0.236c10.024-4.359,19.766-9.84,30.163-13.246c1.262-0.398,2.524-0.771,3.758-1.105
		c-4.236,3.059-8.278,6.406-12.489,9.48c-7.139,5.212-14.091,10.116-22.562,12.854c-4.101,1.341-9.861,0.569-14.252,0.211
		c1.249-1.14,1.99-3.065,3.046-4.48c1.39-1.859,3.115-3.022,4.667-4.643c-2.465,0.919-4.878,2.091-7.369,2.986
		c-3.711,1.307-7.138,0.795-10.982,0.392c-5.175-0.548-11.515-1.737-16.406,0.395c-0.453-3.057,0.965-7.164,1.963-10.009
		c1.917-5.399,5.402-10.838,9.72-14.681c4.64-4.101,11.626-6.735,17.478-8.14C132.918,128.091,127.69,126.747,124.051,128.033z
		 M208.598,151.565c8.042-4.058,16.678-6.854,25.281-6.977c-5.295,3.797-9.221,9.228-15.824,11.448
		c-4.091,1.381-7.341,0.667-11.432,0.192c-3.13-0.358-6.667-1.463-9.674-0.242c1.169-3.268,1.749-6.033,3.807-9.024
		c2.25-3.287,6.519-5.939,10.589-6.57c3.89-0.594,7.88,0.607,11.671,1.048c2.527,0.309,5.176,0.496,7.732,0.735
		c-7.864,1.014-15.646,4.52-22.224,9.258C208.454,151.492,208.515,151.599,208.598,151.565z M237.6,177.58h0.084
		c-0.014,0-0.026,0.002-0.04,0.002c4.019,0.009,7.162,1.179,9.428,3.514c2.274,2.343,3.412,5.599,3.412,9.765
		c0,1.129-0.115,2.205-0.344,3.229h-16.135c0.376,1.476,0.986,2.726,1.831,3.75c1.521,1.806,3.736,2.708,6.646,2.708
		c1.352,0,2.736-0.208,4.154-0.623c1.418-0.415,2.699-0.995,3.845-1.739l-3.718,8.273c-1.729,0.243-3.007,0.404-3.834,0.482
		c-0.828,0.078-1.73,0.117-2.707,0.117c-5.207,0-9.314-1.31-12.32-3.932c-3.007-2.621-4.511-6.215-4.511-10.781
		c0-4.34,1.335-7.886,4.003-10.637c2.66-2.743,6.078-4.117,10.251-4.126C237.63,177.582,237.616,177.58,237.6,177.58z
		 M213.288,345.591c0.724,1.019,1.405,1.875,2.044,2.568c0.63,0.685,1.355,1.358,2.172,2.024c0.28-0.674,0.483-1.354,0.605-2.037
		c0.114-0.693,0.171-1.545,0.171-2.555v-12.732c0-1-0.06-1.848-0.179-2.541c-0.119-0.691-0.321-1.385-0.607-2.076h3.73h3.744
		c-0.286,0.684-0.488,1.371-0.607,2.062c-0.119,0.693-0.179,1.545-0.179,2.555v12.732c0,1.01,0.06,1.861,0.179,2.555
		c0.119,0.691,0.321,1.381,0.607,2.062h-3.73h-3.706h-0.038h-6.083c-0.39,0-1.054-0.52-1.991-1.557
		c-0.937-1.039-1.891-2.308-2.861-3.805l-2.089-3.299v4.043c0,1.01,0.059,1.861,0.179,2.555c0.119,0.691,0.321,1.381,0.607,2.062
		h-3.73h-3.745c0.286-0.682,0.491-1.371,0.615-2.062c0.114-0.693,0.171-1.545,0.171-2.555v-12.732c0-1.01-0.06-1.861-0.179-2.555
		c-0.119-0.691-0.321-1.379-0.607-2.062h3.73h4.03c2.754,0,4.878,0.566,6.374,1.697c1.496,1.133,2.244,2.742,2.244,4.83
		c0,1.992-0.829,3.578-2.487,4.758c-0.581,0.422-1.234,0.758-1.958,1.01L213.288,345.591z M175.162,331.097
		c2.244-2.119,5.128-3.18,8.653-3.18c3.535,0,6.421,1.06,8.661,3.18c2.239,2.121,3.358,4.846,3.358,8.178
		c0,3.322-1.12,6.039-3.358,8.154c-2.239,2.115-5.126,3.172-8.661,3.172c-3.525,0-6.41-1.057-8.653-3.172
		c-2.244-2.115-3.365-4.832-3.365-8.154C171.796,335.942,172.918,333.218,175.162,331.097z M166.423,313.537h-35.566l-13.528-90.041
		h24.693c2.87,24.803,4.918,45.789,6.146,62.957c1.21-17.352,2.493-32.756,3.852-46.213l1.625-16.744h24.693L166.423,313.537z
		 M182.287,313.537v-90.041H205.7v90.041H182.287z M271.423,181.903c-0.216-1.285-0.597-2.526-1.142-3.724h6.908h6.907
		c-0.639,1.181-1.09,2.669-1.353,4.466c-0.263,1.796-0.395,4.31-0.395,7.539v15.051c0,2.136-0.456,4.175-1.367,6.12
		c-0.912,1.944-2.026,3.264-3.341,3.958H265.77c1.673-0.608,3.087-1.936,4.243-3.984c1.156-2.049,1.734-4.245,1.734-6.588v-17.994
		C271.747,184.802,271.638,183.188,271.423,181.903z M270.844,169.638c0-1.631,0.606-3.007,1.818-4.127
		c1.212-1.12,2.702-1.68,4.469-1.68c1.767,0,3.256,0.56,4.469,1.68c1.212,1.12,1.818,2.496,1.818,4.127
		c0,1.632-0.606,3.008-1.818,4.127c-1.213,1.12-2.702,1.68-4.469,1.68c-1.767,0-3.256-0.56-4.469-1.68
		C271.451,172.646,270.844,171.27,270.844,169.638z M264.372,190.196c-1.212,1.12-2.692,1.68-4.44,1.68
		c-1.748,0-3.228-0.56-4.44-1.68c-1.212-1.12-1.818-2.487-1.818-4.101c0-1.615,0.606-2.982,1.818-4.102
		c1.212-1.12,2.692-1.679,4.44-1.679c1.748,0,3.228,0.56,4.44,1.679c1.212,1.12,1.818,2.487,1.818,4.102
		C266.19,187.71,265.584,189.077,264.372,190.196z M317.579,181.903c-0.216-1.285-0.597-2.526-1.142-3.724h6.907h6.907
		c-0.639,1.163-1.09,2.647-1.353,4.453c-0.264,1.806-0.396,4.323-0.396,7.552v7.708c0,1.945,0.108,3.559,0.324,4.844
		c0.216,1.285,0.597,2.526,1.143,3.724h-6.767h-6.767c0.545-1.198,0.931-2.439,1.156-3.724c0.206-1.285,0.31-2.899,0.31-4.844
		v-11.145C317.903,184.802,317.795,183.188,317.579,181.903z M317.002,169.638c0-1.631,0.605-3.007,1.818-4.127
		c1.212-1.12,2.701-1.68,4.468-1.68s3.257,0.56,4.469,1.68c1.213,1.12,1.818,2.496,1.818,4.127c0,1.632-0.606,3.008-1.818,4.127
		c-1.212,1.12-2.702,1.68-4.469,1.68s-3.256-0.56-4.468-1.68C317.607,172.646,317.002,171.27,317.002,169.638z M343.951,198.243
		c1.361,1.45,3.207,2.174,5.535,2.174c1.184,0,2.404-0.199,3.662-0.598c1.258-0.398,2.479-0.962,3.662-1.689l-3.72,8.329
		c-1.561,0.243-2.726,0.404-3.496,0.482c-0.771,0.078-1.626,0.117-2.565,0.117c-4.681,0-8.51-1.372-11.489-4.115
		c-2.979-2.743-4.468-6.275-4.468-10.598c0-4.34,1.635-7.886,4.905-10.637c3.271-2.752,7.461-4.127,12.574-4.127
		c1.428,0,2.607,0.078,3.538,0.234c0.931,0.156,2.072,0.469,3.426,0.938l-0.368,7.336c-1.183-0.684-2.206-1.158-3.07-1.421
		c-0.863-0.263-1.821-0.395-2.872-0.395c-2.235,0-4.01,0.729-5.324,2.188c-1.314,1.458-1.972,3.429-1.972,5.911
		C341.909,194.836,342.59,196.793,343.951,198.243z M370.629,177.58h0.085c-0.014,0-0.026,0.002-0.04,0.002
		c4.019,0.009,7.162,1.179,9.428,3.514c2.274,2.343,3.411,5.599,3.411,9.765c0,1.129-0.114,2.205-0.344,3.229h-16.135
		c0.375,1.476,0.986,2.726,1.831,3.75c1.521,1.806,3.736,2.708,6.646,2.708c1.352,0,2.737-0.208,4.154-0.623
		c1.418-0.415,2.699-0.995,3.845-1.739l-3.718,8.273c-1.73,0.243-3.008,0.404-3.835,0.482c-0.827,0.078-1.729,0.117-2.706,0.117
		c-5.207,0-9.313-1.31-12.32-3.932c-3.008-2.621-4.511-6.215-4.511-10.781c0-4.34,1.334-7.886,4.003-10.637
		c2.66-2.743,6.077-4.117,10.251-4.126C370.658,177.582,370.644,177.58,370.629,177.58z M396.28,151.434
		c-6.563-4.738-14.346-8.244-22.222-9.258c2.559-0.239,5.222-0.426,7.746-0.735c3.784-0.441,7.768-1.642,11.66-1.048
		c4.083,0.631,8.336,3.283,10.597,6.57c2.049,2.991,2.643,5.757,3.798,9.024c-3.002-1.221-6.532-0.116-9.647,0.242
		c-4.104,0.475-7.355,1.188-11.447-0.192c-6.603-2.22-10.52-7.65-15.821-11.448c8.604,0.123,17.238,2.919,25.278,6.977
		C396.304,151.599,396.367,151.492,396.28,151.434z M458.828,126.116c-14.001-2.821-31.134-1.871-45.41,3.96
		c1.114-1.88,4.277-3.106,6.05-4.175c2.763-1.666,5.749-3.509,8.653-4.845c6.316-2.878,12.647-5.506,19.56-7.016
		c7.138-1.561,14.05-0.016,20.335,3.424c4.521,2.475,10.277,5.893,12.751,10.569c-3.637-1.287-8.862,0.058-12.727,0.018
		c5.864,1.405,12.847,4.039,17.49,8.14c4.317,3.843,7.79,9.282,9.716,14.681c0.998,2.845,2.417,6.952,1.967,10.009
		c-4.894-2.132-11.236-0.944-16.408-0.395c-3.844,0.404-7.269,0.915-10.968-0.392c-2.49-0.895-4.919-2.067-7.381-2.986
		c1.551,1.62,3.275,2.784,4.664,4.643c1.06,1.415,1.799,3.341,3.048,4.48c-4.389,0.358-10.152,1.13-14.266-0.211
		c-8.458-2.738-15.419-7.642-22.533-12.854c-4.226-3.074-8.268-6.422-12.504-9.48c1.237,0.333,2.483,0.707,3.757,1.105
		c10.401,3.406,20.144,8.887,30.15,13.246c0.163,0.073,0.298-0.132,0.145-0.236c-11.414-7.629-26.619-16.586-41.693-19.027
		c-0.155-0.08-0.309-0.169-0.463-0.251c8.065-1.292,16.229-1.577,24.749-0.64c15.846,1.749,30.741,7.993,46.055,11.993
		c0.069,0.022,0.106-0.073,0.048-0.098c-21.204-12.678-50.898-20.058-76.072-13.833c15.634-7.819,33.921-10.446,51.208-9.283
		C459.066,126.686,459.137,126.187,458.828,126.116z M483.385,258.59v17.129h-14.626v19.798h17.185v18.02h-40.599v-90.041h39.041
		v18.019h-15.627v17.074H483.385z M412.199,238.791c-0.445-1.297-1.502-1.946-3.17-1.946c-1.446,0-2.429,0.556-2.948,1.669
		c-0.519,1.112-0.778,3.968-0.778,8.564v43.213c0,4.042,0.259,6.701,0.778,7.981c0.52,1.279,1.558,1.919,3.115,1.919
		c1.704,0,2.864-0.723,3.475-2.169c0.611-1.446,0.918-4.263,0.918-8.453V278.89h-4.728v-13.682h27.418v48.329h-14.714l-2.165-6.451
		c-1.596,2.78-3.609,4.866-6.039,6.257c-2.43,1.39-5.296,2.085-8.599,2.085c-3.934,0-7.616-0.955-11.048-2.864
		c-3.433-1.909-6.038-4.272-7.82-7.091c-1.781-2.817-2.895-5.774-3.339-8.87c-0.445-3.096-0.668-7.739-0.668-13.932V255.92
		c0-8.601,0.464-14.849,1.391-18.742c0.927-3.893,3.587-7.461,7.98-10.706c4.394-3.244,10.075-4.866,17.046-4.866
		c6.859,0,12.55,1.409,17.074,4.227c4.523,2.818,7.471,6.165,8.843,10.039c1.371,3.875,2.058,9.501,2.058,16.879v3.893h-23.414
		v-8.175C412.866,243.314,412.644,240.089,412.199,238.791z M415.727,330.304c-0.119-0.691-0.322-1.379-0.607-2.062h3.729h2.958
		c3.84,0,6.929,1.008,9.268,3.025c2.339,2.016,3.508,4.672,3.508,7.965c0,3.369-1.119,6.041-3.358,8.016
		c-2.238,1.975-5.273,2.961-9.104,2.961h-3.272h-3.729c0.285-0.682,0.49-1.371,0.614-2.062c0.114-0.693,0.172-1.545,0.172-2.555
		v-12.732C415.906,331.849,415.846,330.997,415.727,330.304z M411.57,346.952c0.143,1.273,0.314,2.358,0.515,3.256h-3.315h-3.315
		c-0.086-0.318-0.265-0.738-0.536-1.264c-0.271-0.523-0.56-1.01-0.864-1.459l-6.274-9.096v7.201c0,1.01,0.06,1.861,0.179,2.555
		c0.119,0.691,0.321,1.381,0.607,2.062h-3.615h-3.616c0.286-0.682,0.488-1.371,0.607-2.062c0.119-0.693,0.179-1.545,0.179-2.555
		v-13.926l-2.958-3.424h4.059h4.059c0.267,0.553,0.614,1.174,1.043,1.867c0.429,0.691,1.039,1.609,1.83,2.75l5.545,8.043v-8.043
		c0-1.01-0.06-1.861-0.179-2.555c-0.119-0.691-0.322-1.379-0.607-2.062h3.615h3.616c-0.286,0.684-0.488,1.371-0.607,2.062
		c-0.119,0.693-0.179,1.545-0.179,2.555v10.752C411.356,344.565,411.427,345.679,411.57,346.952z M505.967,181.32
		c-0.32-1.332-1.037-2.502-1.475-3.794c0.211,4.137-4.807,6.22-8.758,6.731c0.025,0.147,0.048,0.3,0.072,0.465
		c-0.033,0-0.072,0-0.107,0c-0.082-0.058-0.176-0.107-0.274-0.107c-0.796-0.049-1.535,0.251-2.31,0.643l0.171-0.536
		c-2.547-0.214-3.748-1.782-5.806-2.489v-0.863c2.662,0.342,3.723-0.907,5.993-0.965c-0.153-0.977-0.31-1.951-0.129-2.903
		c0.521-2.727,2.581-4.57,4.487-6.474c3.552-3.568,5.242-7.412,4.162-12.551l0.464,0.821c1.796,6.648,1.487,13.787-3.905,18.893
		c-0.118,0.107,0.026,0.297,0.158,0.214c4.829-2.929,7.138-7.856,7.301-12.995C508.452,170.044,509.725,178.038,505.967,181.32z
		 M493.286,97.69c0.497,1.976,0.732,4.52,2.172,6.082c0.205-3.332,0.139-6.033,2.349-8.878c1.65-2.116,4.196-4.723,3.041-7.457
		c1.975,0.928,3.62,1.164,5.393,2.747c2.438,2.165,3.511,3.818,4.625,6.924c0.861,2.404,2.708,8.639-0.974,9.77
		c1.274-0.252,2.787-1.191,3.835-1.939c1.08,2.377-0.051,6.875-0.908,9.23c-1.855,5.188-6.684,6.854-11.588,8.033
		c-5.707,1.37-11.505,0.417-16.409-2.747c-0.376-0.251-0.933-0.601-1.543-1.001c3.213,0.653,6.545,0.653,9.685-0.144
		c9.04-2.269,13.826-11.683,11.877-20.393c-0.016-0.059-0.121-0.046-0.111,0.012c1.037,9.386-6.066,17.526-15.19,18.525
		c-4.618,0.515-8.425-0.867-11.816-3.106c-0.015-0.046-0.039-0.07-0.048-0.119c5.88,2.094,12.311,1.237,14.206-5.758
		c0.058-0.226-0.284-0.383-0.392-0.156c-2.667,5.822-8.569,5.629-13.873,3.319c0.842-1.439,3.461-0.667,4.842-1.056
		c3.65-1.026,7.448-5.046,8.745-8.579C491.749,99.476,491.391,98.134,493.286,97.69z M451.559,71.779
		c2.512-1.559,4.594-3.345,6.983-5.09c3.733-2.741,11.684-6.808,16.359-4.119c-1.146,1.403-2.869,1.642-3.283,3.81
		c4.08-1.121,7.425-1.405,11.627-0.181c2.659,0.787,5.529,2.343,8.326,1.298c-1.203,3.008-2.869,6.08-5.262,8.339
		c-1.414,1.32-2.982,2.711-4.903,3.201c-1.233,0.318-2.496-0.059-3.593,0.69c1.357,1.166,3.725,0.453,5.406,0.906
		c-4.748,2.582-9.007,5.437-14.709,5.02c-1.535-0.108-3.023-0.524-4.462-1.134c0.691,1.954,3.772,4.523,1.562,6.272
		c-0.285-1.89-3.691-4.544-1.954-6.425c-0.512-0.224-1.007-0.475-1.495-0.726c3.854-0.117,7.626-1.057,11.132-3.222
		c0.075-0.037,0.016-0.144-0.058-0.12c-6.065,0.843-11.515,0.487-16.954-0.511c-0.216-0.156-0.428-0.309-0.643-0.477
		c4-0.12,7.996-1.024,11.814-2.083c4.579-1.274,8.554-4.116,13.09-5.387c0.165-0.037,0.132-0.264-0.024-0.264
		c-7.853-0.285-14.921,4.079-22.764,4.832c-2.863,0.272-5.625,0.211-8.327-0.098l-0.712-0.165
		c5.817-0.284,11.584-2.131,16.836-5.093c0.236-0.128,0.034-0.474-0.205-0.355c-6.137,2.983-12.162,4.162-18.236,3.878
		C448.225,73.432,450.534,72.409,451.559,71.779z M352.367,45.043c-1.557-0.058-3.115,0-4.662,0.205
		c-11.79,1.617-19.489,11.374-17.357,23.128c0.009,0.07,0.129,0.07,0.141,0c0.523-3.773,1.678-7.185,3.44-10.067
		c-0.082-0.273-0.093-0.606,0.021-1.057c0.324-0.346,0.701-0.548,1.109-0.643c3.258-4.346,8.137-7.164,14.607-7.675
		c6.107-0.478,17.539,1.522,19.053,8.924c1.783,8.706-13.271,4.685-17.384,4.924c-5.815,0.343-11.506,3.522-11.159,10.042
		c0.44,7.968,8.03,11.481,15.095,11.041c3.283-0.214,6.697-0.845,10.021,0c2.33,0.594,4.9,3.176,6.604,1.418
		c0.091,5.947-5.854,9.671-9.283,12.146c-2.413,1.737-8.765,1.881-10.181,3.262c-4.366,4.281,6.099,2.153,7.805,1.451
		c8.141-3.286,14.718-8.413,21.103-14.268c9.712-8.885,18.267-19.952,31.912-22.044c-1.465-1.657-3.58-2.631-3.798-5.522
		c-3.649,2.986-8.471,4.701-12.562,6.995c-3.674,2.071-6.96,5.01-9.91,7.962c-1.246,1.259-2.627,2.591-3.846,3.972
		c-1.21,1.382-3.174,2.677-4.171,4.187l-0.124-0.594c0.684-2.037,1.538-4.058,2.644-6.079c2.342-4.272,5.699-7.828,9.304-11.04
		c4.59-4.095,8.998-8.413,14.16-11.806c0.058-0.034,0.024-0.153-0.065-0.116c-3.415,1.427-6.707,3.191-9.8,5.221
		c0.57,0.276,1.198,0.478,0.928,1.596c-0.81,0.346-1.689-0.12-2.178-0.738c-6.676,4.64-12.302,10.624-16.124,17.56l-0.747-3.625
		c1.357-6.487,3.584-12.71,7.635-18.241c0.065-0.071-0.043-0.131-0.104-0.083c-3.059,2.532-6.075,6.173-8.4,10.29
		c0.31-4.569,0.813-9.089,2.871-13.303c1.389-2.867,2.639-5.198,5.292-6.971c2.032-1.357,5.211-3.972,7.797-2.75
		c-1.537,1.728-2.693,6.462-2.143,8.795c3.582-10.198,20.202-8.438,28.374-7.423c-1.831,4.674-2.999,9.276-6.128,13.432
		c-0.644,0.845-1.367,1.605-2.151,2.297c3.758,0.616,5.389,3.378,7.541,5.602c5.258-0.165,10.947,0.572,15.29,3.451
		c3.094,2.07,4.995,2.521,8.165,7.721c-4.122,0.227-9.117,2.928-11.747,6.401c-0.01,0.07-0.035,0.144-0.05,0.214l-0.058,0.347
		l0.048,0.046c0.595-0.401,1.228-0.747,1.869-1.069c0.058-0.073,0.115-0.144,0.199-0.227l-0.034,0.083
		c0.073-0.021,0.107-0.008,0.169-0.008c6.984-3.167,16.286-1.13,22.986,2.471c1.783-0.119,2.082,0.511,1.758,1.035
		c0.169,0.095,0.346,0.206,0.503,0.309c6.292,4.12,17.857,15.04,15.382,23.787c-0.094-0.048-0.177-0.098-0.275-0.156
		c-2.676-1.883-8.52-3.984-9.92-4.26c-5.202-0.986-10.552-0.227-15.599,1.237c-14.811,4.319-28.899,13.684-42.998,19.977
		c-13.791,6.165-29.28,10.125-44.507,9.102c-12.327-0.833-28.019-5.011-36.98-13.955c-0.595-0.585-1.17-1.192-1.715-1.811
		c3.115,1.976,6.472,3.617,10.057,4.87c19.5,6.747,41.721,1.342,59.786-7.019c16.002-7.405,31.238-20.289,48.908-23.309
		c-0.865-0.432-1.513-1.063-2.034-1.81c-12.099,1.225-23.653,7.84-34.167,13.729c-18.277,10.234-38.288,17.927-59.562,16.228
		c-8.294-0.653-16.287-3.556-23.061-8.376c-2.949-2.095-5.675-4.591-7.602-7.687c-0.057-0.104-0.108-0.223-0.164-0.331
		c-0.31,0.095-0.607,0.19-0.88,0.297h-0.012c-0.034-0.297-0.074-0.595-0.132-0.879l0.143,0.034c0-0.276,0-0.561,0-0.834
		c0.083,0.012,0.156,0,0.224,0c-1.105-2.808-1.399-6.162-2.936-8.434c1.823,2.698,3.951,5.213,6.367,7.448
		c0.713-0.536,1.357-1.155,2.21-1.538c-0.072,1.133-0.535,1.872-1.212,2.407c10.822,9.347,26.076,12.109,39.94,10.728
		c7.779-0.771,15.417-2.755,22.651-5.723c7.545-3.09,13.731-8.541,21.081-11.943c0.073-0.047,0.024-0.154-0.055-0.129
		c-6.248,1.69-11.629,4.661-17.327,7.675c-6.054,3.188-12.968,4.805-19.652,6.054c-14.301,2.668-29.101,0.88-41.249-7.494
		c-12.219-8.437-16.17-22.583-11.803-36.278c0.764-2.403,1.699-4.747,2.87-6.97c1.056-2.013,3.316-4.153,4.029-6.199
		c-0.153,0.438-0.297,0.879-0.428,1.329c-5.259,17.456,8.578,39.917,27.783,37.029c-0.108-0.169-0.219-0.321-0.335-0.502
		c-12.459-0.735-20.394-11.907-22.096-23.735c0,0.071,0,0.144,0,0.214c-0.558,0-1.118,0-1.679,0c0-0.56,0-1.117,0-1.678
		c0.49,0,1.003,0,1.498,0c-0.392-3.988-0.092-7.996,1.001-11.659c3.632-12.208,15.122-13.598,26.106-11.588
		C349.665,44.32,351.035,44.653,352.367,45.043z M309.988,29.852c1.847-4.058,4.618-8.795,9.732-8.379
		c-1.154,0.775-1.139,2.074-0.974,3.345c5.757-6.318,19.189-4.63,25.293,0.667c-2.162-0.395-4.447,3.593-5.806,5.268
		c-2.867,3.558-7.091,5.151-11.161,6.903c-4.458,1.926-10.109,5.044-13.419,8.615c-1.501,1.617-4.365,4.33-4.162,6.743l-1.062-3.567
		c4.477-8.376,11.683-15.181,20.904-20.096c0.046-0.037,0.012-0.117-0.046-0.105c-8.851,2.913-16.47,8.268-21.594,15.26
		c0.042-0.153,0.067-0.309,0.116-0.462c1.593-5.473,5.488-9.292,7.665-14.397c0.068-0.152-0.144-0.284-0.25-0.14
		c-2.319,3.497-5.465,5.803-7.642,9.147C307.81,35.562,308.705,32.671,309.988,29.852z M307.241,121.985
		c2.961,9.148,9.472,17.53,16.965,21.263c0.133,0.071,0.298-0.107,0.167-0.214c-5.877-4.842-10.336-12.244-12.588-20.228
		c1.69,2.618,4.735,3.976,7.213,5.699c3.222,2.251,5.91,4.912,8.634,7.675c3.644,3.678,6.667,11.27,4.677,16.491
		c-1.273-1.188-4.328-1.179-6.059-1.641c-2.044-0.539-4.529-0.451-6.448-1.36c-2.031-0.949-4.219-3.21-5.853-4.78
		c-4.031-3.89-5.553-9.625-6.114-15.049C307.575,127.365,307.076,124.594,307.241,121.985z M297.376,199.428
		c0.564,0.677,1.372,1.016,2.425,1.016c1.184,0,2.246-0.434,3.186-1.302v-12.395c0-1.944-0.108-3.559-0.324-4.843
		c-0.217-1.285-0.598-2.526-1.142-3.724h6.906h6.907c-0.639,1.163-1.09,2.283-1.352,3.359c-0.264,1.077-0.394,2.353-0.394,3.828
		v14.244c0,1.32,0.107,2.491,0.324,3.516c0.216,1.024,0.596,2.135,1.142,3.333h-6.033h-6.033v-3.203l-5.188,3.75l-1.635,0.052
		c-3.308,0-5.841-0.812-7.598-2.435c-1.758-1.623-2.636-3.962-2.636-7.018v-14.296c0-0.694-0.108-1.423-0.324-2.188
		c-0.216-0.764-0.597-1.745-1.142-2.942h6.908h6.907c-0.639,1.181-1.09,2.673-1.353,4.479c-0.263,1.789-0.395,4.297-0.395,7.526
		v6.328C296.53,197.779,296.812,198.75,297.376,199.428z M296.988,129.84c-0.552,5.424-2.082,11.16-6.131,15.049
		c-1.617,1.571-3.807,3.831-5.841,4.78c-1.917,0.909-4.404,0.821-6.452,1.36c-1.724,0.462-4.78,0.453-6.052,1.641
		c-1.991-5.221,1.036-12.813,4.661-16.491c2.739-2.763,5.431-5.424,8.652-7.675c2.477-1.724,5.534-3.081,7.221-5.699
		c-2.263,7.984-6.718,15.386-12.611,20.228c-0.116,0.107,0.037,0.285,0.177,0.214c7.497-3.733,13.993-12.115,16.97-21.263
		C297.744,124.594,297.232,127.365,296.988,129.84z M286.06,24.818c0.178-1.271,0.193-2.569-0.962-3.345
		c5.115-0.416,7.89,4.321,9.732,8.379c1.286,2.818,2.178,5.709,2.393,8.802c-2.166-3.345-5.308-5.65-7.625-9.147
		c-0.107-0.144-0.323-0.012-0.252,0.14c2.178,5.106,6.07,8.924,7.663,14.397c0.033,0.153,0.07,0.31,0.116,0.462
		c-5.124-6.992-12.725-12.348-21.594-15.26c-0.057-0.012-0.091,0.067-0.033,0.105c9.221,4.915,16.418,11.72,20.89,20.096
		l-1.058,3.567c0.194-2.413-2.66-5.126-4.164-6.743c-3.307-3.571-8.958-6.689-13.417-8.615c-4.057-1.752-8.294-3.345-11.163-6.903
		c-1.356-1.675-3.641-5.663-5.806-5.268C266.895,20.188,280.319,18.5,286.06,24.818z M173.425,82.406
		c0.064,0,0.098-0.012,0.168,0.008l-0.037-0.083c0.086,0.083,0.128,0.154,0.203,0.227c0.643,0.322,1.274,0.668,1.867,1.069
		l0.049-0.046l-0.049-0.347c-0.024-0.07-0.045-0.144-0.058-0.214c-2.641-3.473-7.626-6.174-11.745-6.401
		c3.167-5.2,5.072-5.65,8.162-7.721c4.333-2.879,10.033-3.617,15.278-3.451c2.163-2.224,3.783-4.985,7.553-5.602
		c-0.781-0.692-1.52-1.452-2.152-2.297c-3.14-4.155-4.294-8.758-6.126-13.432c8.174-1.014,24.794-2.775,28.378,7.423
		c0.545-2.333-0.61-7.068-2.145-8.795c2.582-1.222,5.761,1.393,7.795,2.75c2.652,1.773,3.902,4.104,5.295,6.971
		c2.054,4.213,2.544,8.734,2.878,13.303c-2.333-4.116-5.353-7.757-8.41-10.29c-0.065-0.049-0.168,0.012-0.111,0.083
		c4.055,5.53,6.282,11.754,7.642,18.241l-0.75,3.625c-3.82-6.937-9.463-12.92-16.121-17.56c-0.491,0.618-1.369,1.083-2.181,0.738
		c-0.27-1.118,0.358-1.32,0.927-1.596c-3.089-2.03-6.384-3.794-9.799-5.221c-0.087-0.037-0.12,0.083-0.061,0.116
		c5.163,3.394,9.567,7.711,14.145,11.806c3.617,3.212,6.974,6.768,9.316,11.04c1.106,2.021,1.964,4.042,2.653,6.079l-0.129,0.594
		c-1.002-1.51-2.978-2.805-4.19-4.187c-1.2-1.381-2.584-2.713-3.829-3.972c-2.968-2.952-6.238-5.892-9.913-7.962
		c-4.094-2.294-8.912-4.009-12.562-6.995c-0.227,2.891-2.346,3.865-3.785,5.522c13.625,2.092,22.188,13.159,31.887,22.044
		c6.4,5.855,12.979,10.982,21.105,14.268c1.716,0.702,12.183,2.83,7.817-1.451c-1.424-1.381-7.782-1.525-10.183-3.262
		c-3.431-2.474-9.375-6.199-9.292-12.146c1.715,1.758,4.284-0.824,6.611-1.418c3.309-0.845,6.723-0.214,10.009,0
		c7.09,0.441,14.657-3.072,15.099-11.041c0.357-6.52-5.333-9.699-11.148-10.042c-4.132-0.239-19.18,3.782-17.383-4.924
		c1.511-7.402,12.942-9.402,19.049-8.924c6.471,0.511,11.349,3.329,14.61,7.675c0.393,0.094,0.782,0.296,1.105,0.643
		c0.117,0.451,0.108,0.784,0.025,1.057c1.749,2.881,2.903,6.293,3.448,10.067c0,0.07,0.12,0.07,0.12,0
		c2.141-11.754-5.558-21.511-17.333-23.128c-1.559-0.205-3.121-0.263-4.677-0.205c1.33-0.39,2.702-0.723,4.067-0.974
		c10.986-2.009,22.476-0.619,26.102,11.588c1.097,3.663,1.396,7.671,1.001,11.659c0.503,0,0.999,0,1.502,0c0,0.56,0,1.118,0,1.678
		c-0.562,0-1.122,0-1.682,0c0-0.07,0-0.143,0-0.214c-1.684,11.828-9.635,23-22.093,23.735c-0.114,0.181-0.226,0.333-0.343,0.502
		c19.214,2.888,33.053-19.572,27.801-37.029c-0.138-0.45-0.285-0.891-0.438-1.329c0.704,2.046,2.989,4.187,4.034,6.199
		c1.17,2.223,2.104,4.566,2.869,6.97c4.364,13.696,0.414,27.841-11.805,36.278c-12.146,8.374-26.957,10.162-41.249,7.494
		c-6.682-1.25-13.594-2.866-19.652-6.054c-5.69-3.014-11.08-5.984-17.333-7.675c-0.074-0.024-0.122,0.083-0.049,0.129
		c7.35,3.402,13.551,8.853,21.082,11.943c7.236,2.968,14.856,4.952,22.645,5.723c13.869,1.382,29.124-1.381,39.947-10.728
		c-0.677-0.536-1.155-1.274-1.223-2.407c0.868,0.382,1.507,1.002,2.224,1.538c2.413-2.235,4.545-4.75,6.364-7.448
		c-1.519,2.272-1.829,5.626-2.937,8.434c0.082,0,0.141,0.012,0.223,0c0,0.273,0,0.557,0,0.834l0.144-0.034
		c-0.058,0.285-0.103,0.582-0.128,0.879h-0.016c-0.285-0.107-0.569-0.203-0.879-0.297c-0.057,0.107-0.107,0.227-0.166,0.331
		c-1.926,3.096-4.655,5.592-7.601,7.687c-6.781,4.82-14.765,7.723-23.048,8.376c-21.288,1.699-41.297-5.994-59.574-16.228
		c-10.514-5.89-22.056-12.504-34.165-13.729c-0.526,0.747-1.179,1.378-2.034,1.81c17.668,3.02,32.898,15.904,48.908,23.309
		c18.059,8.361,40.287,13.766,59.777,7.019c3.592-1.253,6.958-2.894,10.062-4.87c-0.56,0.619-1.13,1.226-1.699,1.811
		c-8.974,8.945-24.666,13.122-36.993,13.955c-15.23,1.023-30.719-2.937-44.509-9.102c-14.097-6.293-28.188-15.658-42.995-19.977
		c-5.056-1.463-10.415-2.223-15.587-1.237c-1.418,0.275-7.258,2.377-9.935,4.26c-0.095,0.058-0.193,0.108-0.275,0.156
		c-2.472-8.747,9.09-19.667,15.383-23.787c0.156-0.104,0.334-0.214,0.506-0.309c-0.325-0.524-0.025-1.154,1.757-1.035
		C157.139,81.275,166.442,79.238,173.425,82.406z M121.577,66.198c4.19-1.224,7.543-0.94,11.626,0.181
		c-0.417-2.168-2.144-2.407-3.286-3.81c4.676-2.689,12.611,1.378,16.36,4.119c2.392,1.746,4.474,3.531,6.986,5.09
		c1.007,0.63,3.316,1.653,4.461,2.796c-6.091,0.285-12.1-0.895-18.252-3.878c-0.236-0.119-0.441,0.227-0.203,0.355
		c5.243,2.962,11.016,4.809,16.838,5.093l-0.717,0.165c-2.698,0.31-5.464,0.371-8.327,0.098c-7.843-0.753-14.909-5.117-22.748-4.832
		c-0.169,0-0.202,0.227-0.049,0.264c4.544,1.271,8.52,4.113,13.099,5.387c3.822,1.059,7.815,1.963,11.815,2.083
		c-0.212,0.168-0.429,0.321-0.643,0.477c-5.438,0.998-10.887,1.354-16.954,0.511c-0.08-0.024-0.128,0.083-0.055,0.12
		c3.495,2.165,7.276,3.104,11.132,3.222c-0.487,0.25-0.986,0.502-1.497,0.726c1.724,1.88-1.681,4.535-1.951,6.425
		c-2.214-1.749,0.869-4.318,1.559-6.272c-1.443,0.609-2.928,1.026-4.462,1.134c-5.699,0.417-9.971-2.438-14.718-5.02
		c1.69-0.453,4.055,0.261,5.402-0.906c-1.097-0.748-2.343-0.371-3.583-0.69c-1.914-0.49-3.497-1.88-4.903-3.201
		c-2.401-2.26-4.055-5.331-5.255-8.339C116.046,68.541,118.913,66.985,121.577,66.198z M91.093,104.939
		c1.038,0.748,2.548,1.688,3.834,1.939c-3.687-1.13-1.834-7.366-0.977-9.77c1.106-3.106,2.177-4.76,4.628-6.924
		c1.773-1.583,3.402-1.819,5.39-2.747c-1.154,2.734,1.393,5.341,3.035,7.457c2.227,2.845,2.153,5.546,2.343,8.878
		c1.451-1.562,1.69-4.107,2.18-6.082c1.902,0.444,1.544,1.786,2.105,3.31c1.273,3.532,5.081,7.552,8.734,8.579
		c1.378,0.389,3.984-0.383,4.841,1.056c-5.307,2.31-11.208,2.503-13.876-3.319c-0.104-0.227-0.438-0.07-0.389,0.156
		c1.89,6.995,8.327,7.852,14.191,5.758c-0.012,0.049-0.024,0.073-0.037,0.119c-3.402,2.239-7.21,3.621-11.812,3.106
		c-9.114-0.999-16.231-9.139-15.193-18.525c0.013-0.059-0.095-0.071-0.119-0.012c-1.927,8.709,2.842,18.124,11.885,20.393
		c3.143,0.797,6.474,0.797,9.687,0.144c-0.609,0.401-1.155,0.75-1.55,1.001c-4.9,3.164-10.694,4.117-16.405,2.747
		c-4.9-1.179-9.732-2.845-11.601-8.033C91.143,111.814,90.012,107.315,91.093,104.939z M45.407,149.556
		c2.358-3.954,8.712-8.057,13.612-6.366c0.64,0.227,1.035,0.437,1.369,0.998c-3.393-0.061-3.785,4.793-3.118,7.102
		c0.925,3.167,3.21,4.713,6.125,5.804c-1.865-0.595-2.664-3.164-3.151-4.781c1.583,0.285,2.199-0.747,3.51-1.164
		c1.216-0.395,3.5-0.585,4.771-0.478c1.345,0.095,2.224,0.788,3.39,1.308c1.963,0.87,3.641,1.13,5.795,1.252
		c4.07,0.236,7.638-0.501,11.447-2.214c2.664-1.2,7.757-3.975,7.767-7.307c-1.651,0.57-2.962,2.073-4.425,3.047
		c-2.248,1.498-4.285,2.238-6.97,2.569c-3.393,0.416-9.448-0.615-11.696-3.356c2.034-0.261,5.543-0.846,7.138-2.221
		c-6.808,0.985-15.588-2.551-17.167-10.058c1.926-0.141,3.365-0.058,5.188-0.821c2.52-1.056,4.578-2.202,7.329-2.578
		c5.91-0.821,11.469,1.488,17.082,2.995c6.475,1.749,12.352,0.046,18.538-0.71c-0.07,0.082-0.141,0.153-0.202,0.221
		c-11.267,4.976-23.652,6.284-35.917,2.869c-0.275-0.07-0.358,0.31-0.11,0.408c10.22,4.17,21.857,4.422,32.254,0.912
		c-3.568,4.178-6.875,8.471-10.042,11.886c-12.289,13.229-32.597,23.036-47.636,8.008c-0.178-0.186-0.558,0-0.463,0.276
		c6.732,18.498,31.409,11.993,43.212,2.401c0.986-0.796,1.93-1.629,2.854-2.475c-3.402,5.733-7.102,11.386-12.026,15.633
		c-10.566,9.127-28.674,9.516-37.396-2.248C42.078,164.565,41.683,155.825,45.407,149.556z M32.808,176.225
		c3.333-1.185,6.581-1.057,9.77,0.31c6.042,2.618,10.363,7.472,17.572,7.034l-3.595,0.998c-2.058,0.202-4.116,0.276-6.15,0.025
		c-5.699-0.738-10.685-3.724-16.492-4.009c-0.235-0.01-0.284,0.358-0.058,0.407c4.82,1.042,8.841,4.043,13.514,5.277
		c-2.413-0.245-4.817-0.57-7.267-0.938c-0.263-0.037-0.37,0.318-0.107,0.408c1.58,0.486,3.188,1.056,4.804,1.546
		c-4.342,0.938-8.183,3.13-12.492,4.327c0.062-2.677,3.179-3.531,4.558-5.354c-4.306-0.511-9.283-1.926-11.969-5.757
		C27.954,180.739,30.048,177.226,32.808,176.225z M21.983,224.804c1.654-6.461,4.912-13.049,11.563-15.226
		c-1.105,0.26-2.26,0.545-3.426,0.833c0.012,0.107,0.037,0.214,0.058,0.309c-0.211-0.012-0.355-0.086-0.462-0.217
		c-2,0.515-3.996,1.075-5.818,1.789c0.787-5.739,7.926-11.34,12.302-14.544c6.64-4.848,14.434-6.397,22.273-8.085
		c0.346-0.073,0.713-0.159,1.072-0.242c-2,0.894-3.988,1.812-5.938,2.75c-6.199,3.032-10.862,7.65-16.406,11.658
		c-0.156,0.096-0.025,0.335,0.128,0.242c5.785-3.405,11.006-7.616,17.122-10.449c4.974-2.309,10.256-4.152,15.251-6.486
		c-2.342,1.324-4.709,2.609-7.114,3.893c-5.898,3.154-10.743,6.986-14.822,11.387v0.334c0,0.438,0.236,0.832,0.569,1.071
		c0.12,0.355,0.252,0.714,0.38,1.057c0.036-0.034,0.073-0.073,0.106-0.107c0.5-0.511,1.002-0.988,1.513-1.463
		c-0.024-0.055-0.049-0.12-0.073-0.178c0.049-0.119,0.073-0.235,0.073-0.379v-0.417c0.26,0,0.548,0,0.82,0
		c0.013,0.073,0.025,0.14,0.037,0.211c2.15-1.887,4.435-3.507,6.805-4.992c0.236-0.515,0.735-1.002,1.535-1.087
		c0.104-0.009,0.19-0.009,0.276-0.009c3.971-2.342,8.158-4.376,12.323-6.636c6.116-3.326,12.529-7.294,18.203-12.032
		c-2.211,2.762-4.726,5.292-7.307,7.772c0.276,0,0.548,0,0.836,0c0,0.569,0,1.115,0,1.684c-0.87,0-1.727,0-2.582,0
		c-2.168,2.061-4.342,4.128-6.4,6.294c0.187,0.689,0.426,1.356,1.427,1.239c-0.487,1.223-1.641,0.809-2.474-0.11
		c-2.751,3.014-5.225,6.26-7.118,10.045c-0.082,0.165,0.132,0.297,0.239,0.141c4.331-6.033,11.779-11.197,18.394-16.881
		c-0.619,0.735-1.225,1.473-1.773,2.235c-1.678,2.318-2.487,5.114-3.975,7.531c-3.402,5.534-7.078,10.896-12.419,14.862
		c-3.997,2.974-9.27,3.724-12.85,6.961c-0.405-3.109,0.87-7.084,2.462-9.708c0.833-1.359,4.474-2.992,4.143-4.465
		c-3.334-0.236-8.415,7.629-9.782,10.21c-2.358,4.459-3.558,9.482-5.782,14.015c-2.701,5.46-6.795,8.804-12.578,10.672
		c-2.722,0.878-9.004,2.067-9.757,5.414C19.735,240.402,20.543,230.458,21.983,224.804z M33.546,311.363
		c-6.651-2.179-9.909-8.771-11.563-15.228c-1.44-5.653-2.248-15.602,1.056-20.895c0.753,3.342,7.035,4.536,9.757,5.415
		c5.782,1.868,9.877,5.212,12.578,10.682c2.224,4.523,3.424,9.54,5.782,14.004c1.366,2.583,6.447,10.447,9.782,10.211
		c0.331-1.479-3.311-3.104-4.143-4.465c-1.592-2.614-2.867-6.603-2.462-9.708c3.58,3.237,8.853,3.984,12.85,6.961
		c5.341,3.976,9.017,9.325,12.419,14.862c1.488,2.425,2.297,5.206,3.975,7.53c0.548,0.772,1.154,1.51,1.773,2.235
		c-6.615-5.674-14.063-10.853-18.394-16.879c-0.107-0.148-0.321-0.024-0.239,0.137c1.893,3.782,4.367,7.035,7.118,10.042
		c0.833-0.916,1.987-1.332,2.474-0.12c-1.001-0.106-1.24,0.562-1.427,1.251c2.058,2.165,4.232,4.237,6.4,6.309
		c0.855,0,1.712,0,2.582,0c0,0.554,0,1.114,0,1.675c-0.288,0-0.56,0-0.836,0c2.582,2.474,5.097,5.01,7.307,7.773
		c-5.674-4.737-12.088-8.713-18.203-12.032c-4.165-2.26-8.352-4.293-12.323-6.637c-0.086,0-0.172,0-0.276-0.013
		c-0.799-0.082-1.298-0.572-1.535-1.083c-2.37-1.485-4.655-3.115-6.805-4.999c-0.012,0.086-0.024,0.144-0.037,0.218
		c-0.272,0-0.56,0-0.82,0v-0.416c0-0.135-0.024-0.264-0.073-0.38c0.024-0.065,0.049-0.123,0.073-0.181
		c-0.512-0.463-1.013-0.949-1.513-1.452c-0.034-0.048-0.07-0.083-0.106-0.131c-0.128,0.358-0.261,0.717-0.38,1.071
		c-0.333,0.227-0.569,0.619-0.569,1.072v0.333c4.08,4.401,8.924,8.232,14.822,11.384c2.405,1.286,4.771,2.573,7.114,3.89
		c-4.995-2.318-10.277-4.175-15.251-6.481c-6.116-2.833-11.337-7.044-17.122-10.449c-0.153-0.095-0.284,0.148-0.128,0.236
		c5.543,4.008,10.207,8.626,16.406,11.661c1.95,0.956,3.938,1.859,5.938,2.747c-0.358-0.083-0.726-0.166-1.072-0.236
		c-7.84-1.689-15.634-3.236-22.273-8.09c-4.377-3.203-11.516-8.79-12.302-14.529c1.822,0.704,3.819,1.265,5.818,1.773
		c0.107-0.131,0.251-0.198,0.462-0.214c-0.021,0.098-0.045,0.205-0.058,0.308C31.286,310.812,32.441,311.1,33.546,311.363z
		 M32.808,344.71c-2.759-0.986-4.853-4.508-7.91-4.268c2.686-3.833,7.663-5.248,11.969-5.759c-1.379-1.823-4.496-2.684-4.558-5.357
		c4.309,1.2,8.15,3.39,12.492,4.33c-1.617,0.5-3.225,1.051-4.804,1.547c-0.264,0.084-0.157,0.441,0.107,0.408
		c2.45-0.375,4.854-0.693,7.267-0.929c-4.673,1.222-8.694,4.22-13.514,5.255c-0.227,0.062-0.178,0.429,0.058,0.42
		c5.807-0.275,10.793-3.274,16.492-4c2.034-0.26,4.091-0.19,6.15,0.025l3.595,0.986c-7.209-0.441-11.53,4.428-17.572,7.031
		C39.389,345.782,36.14,345.914,32.808,344.71z M76.32,390.647c-2.75-0.384-4.808-1.521-7.329-2.579
		c-1.822-0.762-3.261-0.683-5.188-0.819c1.58-7.514,10.36-11.044,17.167-10.05c-1.595-1.389-5.104-1.969-7.138-2.235
		c2.247-2.734,8.303-3.767,11.696-3.352c2.685,0.334,4.722,1.068,6.97,2.572c1.463,0.974,2.774,2.471,4.425,3.041
		c-0.01-3.316-5.103-6.1-7.767-7.305c-3.809-1.711-7.377-2.446-11.447-2.21c-2.154,0.116-3.831,0.382-5.795,1.246
		c-1.167,0.527-2.045,1.219-3.39,1.323c-1.271,0.098-3.555-0.096-4.771-0.486c-1.311-0.418-1.926-1.456-3.51-1.171
		c0.487-1.603,1.287-4.186,3.151-4.781c-2.915,1.097-5.2,2.643-6.125,5.807c-0.668,2.306-0.275,7.16,3.118,7.104
		c-0.334,0.559-0.729,0.773-1.369,1c-4.9,1.689-11.254-2.416-13.612-6.367c-3.724-6.268-3.329-15.016,1.06-20.914
		c8.722-11.754,26.83-11.374,37.396-2.251c4.924,4.26,8.624,9.897,12.026,15.647c-0.924-0.854-1.868-1.691-2.854-2.487
		c-11.803-9.59-36.48-16.098-43.212,2.404c-0.095,0.274,0.285,0.462,0.463,0.274c15.039-15.031,35.347-5.228,47.636,8.002
		c3.167,3.415,6.475,7.716,10.042,11.89c-10.397-3.51-22.034-3.271-32.254,0.915c-0.248,0.099-0.166,0.475,0.11,0.407
		c12.265-3.404,24.65-2.107,35.917,2.863c0.061,0.074,0.132,0.153,0.202,0.228c-6.186-0.764-12.063-2.45-18.538-0.714
		C87.789,389.174,82.23,391.468,76.32,390.647z M111.526,423.251c-0.49-1.976-0.729-4.525-2.18-6.082
		c-0.19,3.329-0.117,6.033-2.343,8.887c-1.642,2.107-4.189,4.711-3.035,7.447c-1.987-0.927-3.617-1.169-5.39-2.746
		c-2.45-2.181-3.522-3.822-4.628-6.928c-0.858-2.4-2.71-8.637,0.977-9.757c-1.286,0.241-2.796,1.18-3.834,1.926
		c-1.081-2.376,0.049-6.861,0.894-9.229c1.869-5.176,6.701-6.851,11.601-8.029c5.712-1.37,11.505-0.417,16.405,2.762
		c0.395,0.245,0.94,0.578,1.55,0.986c-3.213-0.652-6.544-0.644-9.687,0.143c-9.043,2.269-13.812,11.683-11.885,20.394
		c0.024,0.055,0.131,0.046,0.119-0.016c-1.038-9.387,6.08-17.514,15.193-18.538c4.603-0.498,8.41,0.883,11.812,3.131
		c0.012,0.036,0.025,0.07,0.037,0.104c-5.865-2.089-12.302-1.234-14.191,5.763c-0.049,0.225,0.285,0.384,0.389,0.165
		c2.668-5.829,8.569-5.638,13.876-3.335c-0.857,1.445-3.463,0.669-4.841,1.063c-3.653,1.021-7.46,5.043-8.734,8.577
		C113.069,421.462,113.428,422.807,111.526,423.251z M153.262,449.163c-2.512,1.555-4.594,3.341-6.986,5.09
		c-3.749,2.734-11.684,6.805-16.36,4.115c1.142-1.405,2.87-1.641,3.286-3.808c-4.083,1.119-7.436,1.415-11.626,0.181
		c-2.664-0.786-5.53-2.357-8.326-1.301c1.2-2.991,2.854-6.075,5.255-8.326c1.406-1.333,2.989-2.723,4.903-3.21
		c1.241-0.31,2.487,0.055,3.583-0.691c-1.348-1.18-3.712-0.451-5.402-0.904c4.747-2.584,9.019-5.438,14.718-5.022
		c1.534,0.11,3.019,0.537,4.462,1.13c-0.69-1.95-3.773-4.52-1.559-6.269c0.27,1.901,3.675,4.56,1.951,6.422
		c0.511,0.231,1.011,0.482,1.497,0.74c-3.855,0.12-7.637,1.058-11.132,3.215c-0.074,0.045-0.025,0.143,0.055,0.128
		c6.067-0.854,11.516-0.497,16.954,0.501c0.215,0.157,0.432,0.319,0.643,0.477c-4,0.128-7.993,1.022-11.815,2.077
		c-4.579,1.286-8.555,4.123-13.099,5.394c-0.153,0.037-0.12,0.259,0.049,0.273c7.84,0.274,14.905-4.089,22.748-4.843
		c2.863-0.272,5.629-0.204,8.327,0.096l0.717,0.169c-5.822,0.293-11.595,2.132-16.838,5.093c-0.239,0.138-0.034,0.485,0.203,0.364
		c6.152-2.999,12.161-4.172,18.252-3.887C156.578,447.496,154.27,448.528,153.262,449.163z M252.452,475.882
		c1.557,0.071,3.118,0.025,4.677-0.189c11.775-1.617,19.474-11.364,17.333-23.131c0-0.07-0.12-0.07-0.12,0
		c-0.545,3.782-1.699,7.188-3.448,10.066c0.083,0.262,0.092,0.609-0.025,1.057c-0.324,0.349-0.713,0.552-1.105,0.643
		c-3.261,4.343-8.14,7.162-14.61,7.675c-6.107,0.477-17.539-1.52-19.049-8.912c-1.797-8.716,13.252-4.682,17.383-4.935
		c5.815-0.349,11.505-3.521,11.148-10.041c-0.442-7.975-8.009-11.481-15.099-11.032c-3.286,0.203-6.7,0.833-10.009,0
		c-2.327-0.593-4.896-3.175-6.611-1.414c-0.083-5.972,5.861-9.677,9.292-12.158c2.4-1.74,8.759-1.884,10.183-3.262
		c4.367-4.272-6.101-2.152-7.817-1.451c-8.126,3.283-14.706,8.413-21.105,14.277c-9.7,8.875-18.262,19.943-31.887,22.031
		c1.439,1.656,3.559,2.634,3.785,5.523c3.65-2.986,8.468-4.699,12.562-6.995c3.674-2.07,6.945-4.999,9.913-7.96
		c1.244-1.249,2.628-2.582,3.829-3.975c1.212-1.365,3.188-2.674,4.19-4.187l0.129,0.594c-0.689,2.034-1.547,4.059-2.653,6.083
		c-2.342,4.269-5.699,7.827-9.316,11.04c-4.578,4.091-8.982,8.41-14.145,11.8c-0.059,0.036-0.025,0.153,0.061,0.134
		c3.414-1.439,6.709-3.19,9.799-5.236c-0.569-0.275-1.197-0.479-0.927-1.593c0.812-0.349,1.69,0.117,2.181,0.748
		c6.658-4.649,12.301-10.633,16.121-17.575l0.75,3.632c-1.36,6.482-3.586,12.709-7.642,18.236c-0.057,0.074,0.046,0.132,0.111,0.082
		c3.057-2.52,6.076-6.17,8.41-10.277c-0.334,4.555-0.824,9.077-2.878,13.304c-1.394,2.854-2.643,5.185-5.295,6.958
		c-2.034,1.356-5.213,3.985-7.795,2.75c1.535-1.724,2.69-6.466,2.145-8.792c-3.584,10.207-20.204,8.435-28.378,7.424
		c1.832-4.674,2.986-9.283,6.126-13.433c0.633-0.845,1.372-1.607,2.152-2.309c-3.77-0.606-5.39-3.366-7.553-5.593
		c-5.246,0.168-10.945-0.56-15.278-3.448c-3.089-2.059-4.995-2.536-8.162-7.724c4.119-0.211,9.104-2.928,11.745-6.388
		c0.012-0.074,0.034-0.142,0.058-0.229l0.049-0.34l-0.049-0.051c-0.594,0.405-1.224,0.764-1.867,1.073
		c-0.074,0.073-0.117,0.14-0.203,0.227l0.037-0.087c-0.07,0.021-0.104,0.014-0.168,0.021c-6.983,3.155-16.287,1.121-22.984-2.485
		c-1.782,0.122-2.082-0.506-1.757-1.032c-0.172-0.1-0.35-0.19-0.506-0.293c-6.293-4.132-17.854-15.057-15.383-23.809
		c0.083,0.058,0.181,0.104,0.275,0.161c2.677,1.881,8.517,3.987,9.935,4.26c5.172,0.987,10.532,0.231,15.587-1.249
		c14.808-4.293,28.898-13.658,42.995-19.961c13.791-6.177,29.28-10.125,44.509-9.105c12.327,0.836,28.019,5.022,36.993,13.959
		c0.569,0.585,1.139,1.189,1.699,1.819c-3.104-1.987-6.471-3.631-10.062-4.878c-19.49-6.747-41.718-1.348-59.777,7.019
		c-16.01,7.399-31.24,20.302-48.908,23.317c0.855,0.408,1.508,1.052,2.034,1.799c12.109-1.23,23.652-7.84,34.165-13.733
		c18.277-10.228,38.286-17.926,59.574-16.222c8.284,0.652,16.268,3.544,23.048,8.373c2.945,2.107,5.675,4.593,7.601,7.687
		c0.059,0.105,0.108,0.227,0.166,0.332c0.309-0.081,0.594-0.179,0.879-0.286l0.016-0.012c0.025,0.298,0.07,0.597,0.128,0.883
		l-0.144-0.038c0,0.286,0,0.561,0,0.837c-0.083,0-0.141,0-0.223,0c1.108,2.805,1.417,6.171,2.937,8.431
		c-1.819-2.697-3.951-5.21-6.364-7.449c-0.717,0.537-1.356,1.147-2.224,1.537c0.068-1.128,0.546-1.87,1.223-2.391
		c-10.823-9.364-26.078-12.12-39.947-10.745c-7.788,0.776-15.408,2.763-22.645,5.724c-7.531,3.095-13.732,8.544-21.082,11.958
		c-0.073,0.033-0.025,0.145,0.049,0.129c6.253-1.7,11.644-4.675,17.333-7.674c6.058-3.197,12.97-4.815,19.652-6.068
		c14.292-2.663,29.103-0.878,41.249,7.498c12.218,8.434,16.169,22.58,11.805,36.275c-0.765,2.402-1.699,4.746-2.869,6.974
		c-1.044,2.007-3.33,4.152-4.034,6.21c0.154-0.453,0.3-0.894,0.438-1.347c5.252-17.451-8.587-39.914-27.801-37.015
		c0.117,0.157,0.229,0.325,0.343,0.49c12.458,0.739,20.409,11.911,22.093,23.734c0-0.067,0-0.141,0-0.213c0.56,0,1.121,0,1.682,0
		c0,0.56,0,1.12,0,1.677c-0.503,0-0.998,0-1.502,0c0.395,3.987,0.095,7.996-1.001,11.659c-3.626,12.22-15.116,13.609-26.102,11.591
		C255.154,476.605,253.782,476.287,252.452,475.882z M294.831,491.088c-1.843,4.046-4.618,8.805-9.732,8.373
		c1.155-0.771,1.14-2.067,0.962-3.342c-5.742,6.333-19.165,4.631-25.281-0.667c2.165,0.398,4.45-3.593,5.806-5.267
		c2.869-3.556,7.105-5.139,11.163-6.902c4.459-1.927,10.11-5.045,13.417-8.612c1.504-1.617,4.358-4.333,4.164-6.747l1.058,3.583
		c-4.472,8.36-11.669,15.165-20.89,20.085c-0.058,0.032-0.024,0.113,0.033,0.104c8.87-2.917,16.47-8.27,21.594-15.269
		c-0.046,0.154-0.083,0.31-0.116,0.464c-1.593,5.488-5.485,9.311-7.663,14.399c-0.07,0.168,0.145,0.301,0.252,0.144
		c2.317-3.5,5.459-5.807,7.625-9.153C297.009,485.389,296.117,488.268,294.831,491.088z M297.582,398.95
		c-2.977-9.148-9.473-17.523-16.97-21.258c-0.14-0.062-0.293,0.108-0.177,0.211c5.893,4.844,10.348,12.247,12.611,20.227
		c-1.687-2.614-4.744-3.97-7.221-5.694c-3.221-2.241-5.913-4.919-8.652-7.678c-3.626-3.675-6.652-11.267-4.661-16.488
		c1.272,1.188,4.328,1.173,6.052,1.639c2.048,0.552,4.536,0.454,6.452,1.356c2.034,0.953,4.224,3.214,5.841,4.787
		c4.049,3.886,5.579,9.636,6.131,15.049C297.232,393.575,297.744,396.347,297.582,398.95z M301.389,350.208h-3.571
		c0.038-0.309,0.019-0.652-0.057-1.031c-0.076-0.379-0.229-0.883-0.458-1.51l-1.112-3.004h-7.11l-1.004,3.004
		c-0.219,0.627-0.362,1.131-0.429,1.51c-0.066,0.379-0.081,0.723-0.042,1.031H284.2h-3.406c0.41-0.523,0.805-1.131,1.186-1.824
		c0.381-0.693,0.829-1.623,1.343-2.793l6.031-14.305c0.276-0.645,0.515-1.262,0.715-1.852c0.2-0.59,0.31-0.988,0.329-1.193h2.487
		h2.486c0.019,0.205,0.129,0.604,0.329,1.193c0.2,0.59,0.438,1.207,0.714,1.852l6.031,14.305c0.524,1.197,0.974,2.143,1.35,2.836
		c0.377,0.691,0.76,1.285,1.15,1.781H301.389z M305.757,330.304c-0.119-0.691-0.321-1.379-0.607-2.062h3.729h3.745
		c-0.286,0.684-0.489,1.371-0.607,2.062c-0.12,0.693-0.179,1.545-0.179,2.555v13.434c1.248-0.074,2.329-0.197,3.244-0.365
		c1.609-0.309,3.129-0.836,4.559-1.586l-1.229,2.934l-1.243,2.934h-5.33h-6.688c0.286-0.682,0.488-1.371,0.607-2.062
		c0.119-0.693,0.179-1.545,0.179-2.555v-12.732C305.936,331.849,305.877,330.997,305.757,330.304z M307.834,391.101
		c0.561-5.413,2.083-11.163,6.114-15.049c1.635-1.573,3.822-3.834,5.853-4.787c1.919-0.902,4.404-0.805,6.448-1.356
		c1.73-0.466,4.786-0.45,6.059-1.639c1.99,5.222-1.033,12.813-4.677,16.488c-2.724,2.759-5.412,5.436-8.634,7.678
		c-2.478,1.725-5.522,3.08-7.213,5.694c2.252-7.979,6.711-15.383,12.588-20.227c0.131-0.103-0.034-0.273-0.167-0.211
		c-7.493,3.734-14.004,12.109-16.965,21.258C307.076,396.347,307.575,393.575,307.834,391.101z M318.747,496.119
		c-0.165,1.274-0.181,2.57,0.974,3.342c-5.114,0.432-7.886-4.327-9.732-8.373c-1.283-2.82-2.178-5.699-2.404-8.808
		c2.177,3.347,5.322,5.653,7.642,9.153c0.106,0.157,0.318,0.024,0.25-0.144c-2.177-5.089-6.072-8.911-7.665-14.399
		c-0.049-0.154-0.074-0.31-0.116-0.464c5.124,6.999,12.743,12.352,21.594,15.269c0.058,0.009,0.092-0.072,0.046-0.104
		c-9.222-4.92-16.428-11.725-20.904-20.085l1.062-3.583c-0.203,2.414,2.661,5.13,4.162,6.747c3.31,3.567,8.961,6.685,13.419,8.612
		c4.07,1.764,8.294,3.347,11.161,6.902c1.358,1.675,3.644,5.666,5.806,5.267C337.935,500.75,324.504,502.452,318.747,496.119z
		 M431.394,438.544c-0.062-0.008-0.096,0-0.169-0.021l0.034,0.087c-0.084-0.087-0.142-0.153-0.199-0.227
		c-0.642-0.31-1.274-0.668-1.869-1.073l-0.048,0.051l0.058,0.34c0.015,0.088,0.04,0.155,0.05,0.229
		c2.63,3.46,7.625,6.177,11.747,6.388c-3.17,5.188-5.071,5.665-8.165,7.724c-4.343,2.889-10.032,3.616-15.29,3.448
		c-2.152,2.227-3.783,4.986-7.541,5.593c0.784,0.701,1.508,1.464,2.151,2.309c3.129,4.149,4.297,8.759,6.128,13.433
		c-8.172,1.011-24.792,2.783-28.374-7.424c-0.55,2.326,0.606,7.068,2.143,8.792c-2.586,1.235-5.765-1.394-7.797-2.75
		c-2.653-1.773-3.903-4.104-5.292-6.958c-2.058-4.227-2.561-8.749-2.871-13.304c2.325,4.107,5.342,7.758,8.4,10.277
		c0.062,0.05,0.17-0.008,0.104-0.082c-4.051-5.527-6.277-11.754-7.635-18.236l0.747-3.632c3.822,6.942,9.448,12.926,16.124,17.575
		c0.488-0.631,1.367-1.097,2.178-0.748c0.271,1.114-0.357,1.317-0.928,1.593c3.093,2.046,6.385,3.797,9.8,5.236
		c0.089,0.02,0.122-0.098,0.065-0.134c-5.162-3.39-9.57-7.709-14.16-11.8c-3.604-3.213-6.962-6.771-9.304-11.04
		c-1.107-2.024-1.961-4.049-2.644-6.083l0.124-0.594c0.997,1.513,2.961,2.821,4.171,4.187c1.219,1.393,2.6,2.726,3.846,3.975
		c2.95,2.961,6.236,5.89,9.91,7.96c4.092,2.296,8.913,4.009,12.562,6.995c0.218-2.889,2.333-3.866,3.798-5.523
		c-13.646-2.088-22.2-13.156-31.912-22.031c-6.385-5.864-12.962-10.994-21.103-14.277c-1.706-0.701-12.171-2.82-7.805,1.451
		c1.416,1.378,7.767,1.521,10.181,3.262c3.43,2.482,9.374,6.187,9.283,12.158c-1.703-1.761-4.273,0.821-6.604,1.414
		c-3.323,0.833-6.737,0.203-10.021,0c-7.065-0.448-14.654,3.058-15.095,11.032c-0.347,6.519,5.344,9.692,11.159,10.041
		c4.113,0.253,19.167-3.781,17.384,4.935c-1.514,7.393-12.945,9.39-19.053,8.912c-6.471-0.513-11.35-3.332-14.607-7.675
		c-0.408-0.092-0.785-0.295-1.109-0.643c-0.113-0.447-0.103-0.795-0.021-1.057c-1.762-2.878-2.917-6.284-3.44-10.066
		c-0.012-0.07-0.132-0.07-0.141,0c-2.132,11.767,5.567,21.514,17.357,23.131c1.547,0.215,3.106,0.261,4.662,0.189
		c-1.332,0.405-2.702,0.724-4.067,0.989c-10.984,2.018-22.475,0.629-26.106-11.591c-1.093-3.663-1.393-7.672-1.001-11.659
		c-0.495,0-1.008,0-1.498,0c0-0.557,0-1.117,0-1.677c0.56,0,1.121,0,1.679,0c0,0.072,0,0.146,0,0.213
		c1.702-11.823,9.637-22.995,22.096-23.734c0.116-0.165,0.227-0.333,0.335-0.49c-19.205-2.899-33.042,19.563-27.783,37.015
		c0.131,0.452,0.274,0.894,0.428,1.347c-0.713-2.058-2.974-4.203-4.029-6.21c-1.171-2.228-2.107-4.571-2.87-6.974
		c-4.367-13.695-0.416-27.842,11.803-36.275c12.148-8.376,26.948-10.161,41.249-7.498c6.685,1.254,13.599,2.871,19.652,6.068
		c5.698,2.999,11.079,5.974,17.327,7.674c0.079,0.016,0.128-0.096,0.055-0.129c-7.35-3.414-13.536-8.863-21.081-11.958
		c-7.234-2.961-14.872-4.947-22.651-5.724c-13.864-1.375-29.118,1.381-39.94,10.745c0.677,0.52,1.14,1.263,1.212,2.391
		c-0.853-0.391-1.497-1-2.21-1.537c-2.416,2.239-4.544,4.752-6.367,7.449c1.537-2.26,1.831-5.626,2.936-8.431
		c-0.067,0-0.141,0-0.224,0c0-0.275,0-0.551,0-0.837l-0.143,0.038c0.058-0.286,0.098-0.585,0.132-0.883l0.012,0.012
		c0.272,0.107,0.57,0.205,0.88,0.286c0.057-0.104,0.107-0.227,0.164-0.332c1.927-3.094,4.652-5.579,7.602-7.687
		c6.774-4.829,14.768-7.721,23.061-8.373c21.273-1.704,41.284,5.994,59.562,16.222c10.514,5.894,22.068,12.504,34.167,13.733
		c0.521-0.747,1.169-1.391,2.034-1.799c-17.67-3.016-32.906-15.918-48.908-23.317c-18.065-8.366-40.286-13.766-59.786-7.019
		c-3.585,1.247-6.941,2.891-10.057,4.878c0.545-0.631,1.12-1.234,1.715-1.819c8.962-8.936,24.653-13.123,36.98-13.959
		c15.227-1.02,30.716,2.929,44.507,9.105c14.1,6.303,28.188,15.668,42.998,19.961c5.047,1.48,10.396,2.236,15.599,1.249
		c1.4-0.273,7.244-2.379,9.92-4.26c0.099-0.058,0.182-0.103,0.275-0.161c2.476,8.752-9.09,19.677-15.382,23.809
		c-0.157,0.102-0.334,0.193-0.503,0.293c0.324,0.526,0.025,1.154-1.758,1.032C447.68,439.665,438.379,441.699,431.394,438.544z
		 M483.246,454.741c-4.202,1.234-7.547,0.938-11.627-0.181c0.414,2.167,2.138,2.402,3.283,3.808
		c-4.676,2.69-12.627-1.381-16.359-4.115c-2.39-1.749-4.472-3.535-6.983-5.09c-1.025-0.635-3.334-1.667-4.448-2.797
		c6.074-0.285,12.1,0.888,18.236,3.887c0.239,0.121,0.441-0.227,0.205-0.364c-5.252-2.961-11.019-4.8-16.836-5.093l0.712-0.169
		c2.702-0.3,5.464-0.368,8.327-0.096c7.843,0.754,14.911,5.117,22.764,4.843c0.156-0.014,0.19-0.235,0.024-0.273
		c-4.536-1.271-8.511-4.108-13.09-5.394c-3.818-1.055-7.814-1.949-11.814-2.077c0.215-0.157,0.427-0.319,0.643-0.477
		c5.439-0.998,10.889-1.356,16.954-0.501c0.073,0.015,0.133-0.083,0.058-0.128c-3.506-2.157-7.278-3.095-11.132-3.215
		c0.488-0.259,0.983-0.51,1.495-0.74c-1.737-1.862,1.669-4.52,1.954-6.422c2.21,1.749-0.87,4.318-1.562,6.269
		c1.438-0.593,2.927-1.02,4.462-1.13c5.702-0.416,9.961,2.438,14.709,5.022c-1.682,0.453-4.049-0.275-5.406,0.904
		c1.097,0.746,2.359,0.382,3.593,0.691c1.921,0.487,3.489,1.877,4.903,3.21c2.393,2.251,4.059,5.335,5.262,8.326
		C488.775,452.384,485.905,453.955,483.246,454.741z M513.726,415.998c-1.048-0.746-2.561-1.685-3.835-1.926
		c3.682,1.12,1.835,7.357,0.974,9.757c-1.114,3.106-2.187,4.747-4.625,6.928c-1.773,1.577-3.418,1.819-5.393,2.746
		c1.155-2.736-1.391-5.34-3.041-7.447c-2.21-2.854-2.143-5.558-2.349-8.887c-1.44,1.557-1.675,4.107-2.172,6.082
		c-1.895-0.444-1.537-1.789-2.083-3.312c-1.297-3.534-5.095-7.557-8.745-8.577c-1.381-0.394-4,0.382-4.842-1.063
		c5.304-2.303,11.206-2.494,13.873,3.335c0.107,0.219,0.449,0.06,0.392-0.165c-1.895-6.997-8.326-7.852-14.206-5.763
		c0.009-0.034,0.033-0.068,0.048-0.104c3.391-2.248,7.197-3.629,11.816-3.131c9.124,1.024,16.227,9.151,15.19,18.538
		c-0.01,0.062,0.096,0.07,0.111,0.016c1.949-8.711-2.837-18.125-11.877-20.394c-3.14-0.787-6.472-0.796-9.685-0.143
		c0.61-0.408,1.167-0.741,1.543-0.986c4.904-3.179,10.702-4.132,16.409-2.762c4.904,1.179,9.733,2.854,11.588,8.029
		C513.675,409.137,514.806,413.622,513.726,415.998z M559.398,371.385c-2.341,3.951-8.692,8.056-13.596,6.367
		c-0.643-0.227-1.047-0.441-1.372-1c3.396,0.056,3.785-4.799,3.12-7.104c-0.929-3.164-3.212-4.71-6.131-5.807
		c1.855,0.596,2.667,3.179,3.155,4.781c-1.585-0.285-2.212,0.753-3.51,1.171c-1.213,0.391-3.508,0.584-4.769,0.486
		c-1.348-0.104-2.227-0.796-3.397-1.323c-1.959-0.864-3.634-1.13-5.791-1.246c-4.07-0.236-7.641,0.499-11.444,2.21
		c-2.667,1.205-7.757,3.988-7.769,7.305c1.668-0.57,2.961-2.067,4.416-3.041c2.26-1.504,4.293-2.238,6.979-2.572
		c3.396-0.414,9.438,0.618,11.698,3.352c-2.034,0.267-5.546,0.847-7.139,2.235c6.805-0.994,15.585,2.536,17.164,10.05
		c-1.926,0.137-3.377,0.058-5.187,0.819c-2.521,1.058-4.563,2.195-7.326,2.579c-5.912,0.82-11.471-1.474-17.085-2.998
		c-6.472-1.736-12.352-0.05-18.537,0.714c0.073-0.074,0.131-0.153,0.214-0.228c11.258-4.971,23.644-6.268,35.911-2.863
		c0.261,0.067,0.352-0.309,0.113-0.407c-10.228-4.187-21.863-4.425-32.278-0.915c3.586-4.174,6.887-8.475,10.057-11.89
		c12.303-13.229,32.597-23.033,47.637-8.002c0.181,0.188,0.561,0,0.466-0.274c-6.734-18.502-31.409-11.994-43.215-2.404
		c-0.986,0.796-1.927,1.633-2.854,2.487c3.405-5.75,7.09-11.388,12.026-15.647c10.554-9.123,28.677-9.503,37.409,2.251
		C562.741,356.369,563.136,365.116,559.398,371.385z M572.008,344.71c-3.325,1.204-6.562,1.072-9.75-0.309
		c-6.058-2.604-10.376-7.473-17.601-7.031l3.592-0.986c2.073-0.215,4.14-0.285,6.165-0.025c5.699,0.726,10.684,3.725,16.488,4
		c0.242,0.009,0.285-0.358,0.064-0.42c-4.82-1.035-8.83-4.033-13.506-5.255c2.402,0.235,4.805,0.554,7.246,0.929
		c0.261,0.033,0.38-0.324,0.118-0.408c-1.583-0.496-3.19-1.047-4.81-1.547c4.332-0.94,8.189-3.13,12.495-4.33
		c-0.071,2.673-3.176,3.533-4.569,5.357c4.333,0.511,9.278,1.926,11.982,5.759C576.863,340.202,574.783,343.724,572.008,344.71z
		 M582.837,296.136c-1.65,6.456-4.912,13.049-11.56,15.228c1.105-0.264,2.258-0.552,3.423-0.837
		c-0.009-0.104-0.034-0.211-0.06-0.308c0.213,0.016,0.359,0.083,0.463,0.214c1.988-0.509,4.001-1.069,5.808-1.773
		c-0.771,5.739-7.911,11.326-12.294,14.529c-6.635,4.854-14.43,6.4-22.27,8.09c-0.343,0.07-0.713,0.153-1.072,0.236
		c2-0.888,3.977-1.791,5.926-2.747c6.198-3.035,10.878-7.653,16.434-11.661c0.139-0.089,0.01-0.331-0.147-0.236
		c-5.782,3.405-11.015,7.616-17.115,10.449c-4.989,2.306-10.261,4.162-15.271,6.481c2.358-1.316,4.727-2.604,7.13-3.89
		c5.904-3.151,10.743-6.982,14.812-11.384v-0.333c0-0.453-0.216-0.846-0.561-1.072c-0.119-0.354-0.251-0.713-0.379-1.071
		c-0.048,0.048-0.074,0.083-0.107,0.131c-0.501,0.503-0.998,0.989-1.51,1.452c0.022,0.058,0.046,0.116,0.057,0.181
		c-0.035,0.116-0.057,0.245-0.057,0.38v0.416c-0.275,0-0.539,0-0.823,0c-0.013-0.073-0.021-0.132-0.034-0.218
		c-2.143,1.884-4.438,3.514-6.805,4.999c-0.241,0.511-0.737,1.001-1.55,1.083c-0.092,0.013-0.177,0.013-0.261,0.013
		c-3.975,2.344-8.164,4.377-12.326,6.637c-6.115,3.319-12.528,7.295-18.212,12.032c2.226-2.763,4.731-5.299,7.316-7.773
		c-0.285,0-0.552,0-0.837,0c0-0.56,0-1.121,0-1.675c0.87,0,1.732,0,2.586,0c2.16-2.071,4.342-4.144,6.412-6.309
		c-0.218-0.689-0.444-1.357-1.438-1.251c0.489-1.212,1.643-0.796,2.474,0.12c2.732-3.007,5.222-6.26,7.114-10.042
		c0.083-0.161-0.132-0.285-0.235-0.137c-4.335,6.026-11.782,11.205-18.4,16.879c0.625-0.726,1.229-1.463,1.773-2.235
		c1.681-2.324,2.486-5.106,3.976-7.53c3.404-5.537,7.081-10.887,12.421-14.862c4-2.977,9.271-3.724,12.85-6.961
		c0.404,3.105-0.869,7.094-2.465,9.708c-0.845,1.36-4.48,2.985-4.137,4.465c3.332,0.236,8.421-7.628,9.778-10.211
		c2.366-4.464,3.561-9.481,5.782-14.004c2.7-5.47,6.795-8.814,12.577-10.682c2.725-0.879,9.01-2.073,9.757-5.415
		C585.087,280.533,584.275,290.482,582.837,296.136z M581.78,245.699c-0.747-3.347-7.032-4.535-9.757-5.414
		c-5.782-1.869-9.877-5.212-12.577-10.672c-2.222-4.533-3.416-9.555-5.782-14.015c-1.357-2.582-6.446-10.446-9.778-10.21
		c-0.344,1.473,3.292,3.106,4.137,4.465c1.596,2.625,2.869,6.6,2.465,9.708c-3.579-3.238-8.85-3.988-12.85-6.961
		c-5.34-3.966-9.017-9.329-12.421-14.862c-1.489-2.417-2.295-5.212-3.976-7.531c-0.545-0.762-1.148-1.5-1.773-2.235
		c6.618,5.684,14.066,10.848,18.4,16.881c0.104,0.156,0.318,0.024,0.235-0.141c-1.893-3.786-4.382-7.032-7.114-10.045
		c-0.83,0.919-1.984,1.333-2.474,0.11c0.994,0.117,1.221-0.55,1.438-1.239c-2.07-2.166-4.252-4.233-6.412-6.294
		c-0.854,0-1.716,0-2.586,0c0-0.569,0-1.115,0-1.684c0.285,0,0.552,0,0.837,0c-2.586-2.481-5.091-5.01-7.316-7.772
		c5.684,4.738,12.097,8.706,18.212,12.032c4.162,2.26,8.352,4.294,12.326,6.636c0.084,0,0.169,0,0.261,0.009
		c0.812,0.086,1.309,0.573,1.55,1.087c2.367,1.485,4.661,3.106,6.805,4.992c0.013-0.071,0.021-0.139,0.034-0.211
		c0.284,0,0.548,0,0.823,0v0.417c0,0.144,0.022,0.26,0.057,0.379c-0.011,0.059-0.035,0.123-0.057,0.178
		c0.512,0.475,1.009,0.952,1.51,1.463c0.033,0.034,0.06,0.074,0.107,0.107c0.128-0.342,0.26-0.701,0.379-1.057
		c0.345-0.239,0.561-0.634,0.561-1.071v-0.334c-4.069-4.401-8.908-8.232-14.812-11.387c-2.403-1.283-4.772-2.569-7.13-3.893
		c5.01,2.334,10.281,4.177,15.271,6.486c6.101,2.833,11.333,7.044,17.115,10.449c0.157,0.092,0.286-0.146,0.147-0.242
		c-5.556-4.008-10.235-8.627-16.434-11.658c-1.949-0.938-3.926-1.856-5.926-2.75c0.359,0.083,0.729,0.168,1.072,0.242
		c7.84,1.688,15.635,3.237,22.27,8.085c4.383,3.204,11.522,8.805,12.294,14.544c-1.807-0.713-3.819-1.274-5.808-1.789
		c-0.104,0.132-0.25,0.205-0.463,0.217c0.025-0.095,0.051-0.202,0.06-0.309c-1.165-0.288-2.317-0.573-3.423-0.833
		c6.647,2.177,9.909,8.765,11.56,15.226C584.275,230.458,585.087,240.402,581.78,245.699z"/>
	<polygon fill="#FFFFFF" points="290.388,340.831 294.823,340.831 292.52,334.599 	"/>
	<path fill="#FFFFFF" d="M426.567,344.124c1.095-1.193,1.644-2.805,1.644-4.836c0-2.227-0.574-3.996-1.723-5.307
		c-1.148-1.31-2.708-1.965-4.681-1.965v13.896h0.314C423.989,345.913,425.471,345.317,426.567,344.124z"/>
	<path fill="#FFFFFF" d="M344.721,281.392h8.06c-1.186-10.198-2.374-22.804-3.566-37.818
		C346.829,260.815,345.331,273.421,344.721,281.392z"/>
</g>
</svg>
